<svg xmlns="http://www.w3.org/2000/svg" width="20" height="20" viewBox="0 0 20 20" fill="none">
<g clip-path="url(#clip0_32_18)">
<path d="M17.5083 15.3325C18.7008 14.27 19.375 12.8542 19.375 11.3842C19.375 9.8225 18.6442 8.36167 17.3158 7.27083C16.0242 6.20917 14.3133 5.625 12.5 5.625C10.6867 5.625 8.97583 6.20917 7.68417 7.27083C6.35667 8.36167 5.625 9.8225 5.625 11.3842C5.625 12.9458 6.35583 14.4067 7.68417 15.4975C8.97583 16.5583 10.6867 17.1433 12.5 17.1433C12.7417 17.1433 12.985 17.1325 13.2258 17.1117L13.6375 17.4683C15.0548 18.7011 16.8708 19.3785 18.7492 19.375H19.3742V18.045L19.1908 17.8617C18.4815 17.1504 17.9161 16.3089 17.5258 15.3833L17.5067 15.3325H17.5083ZM14.4567 16.5233L13.63 15.8067L13.3542 15.8408C13.0975 15.8742 12.8008 15.8925 12.5 15.8925C9.39833 15.8925 6.875 13.87 6.875 11.3833C6.875 8.89667 9.39833 6.87417 12.5 6.87417C15.6017 6.87417 18.125 8.89667 18.125 11.3833C18.125 12.6217 17.5067 13.7783 16.385 14.6392L16.025 14.915L16.1908 15.385C16.5338 16.3519 17.0388 17.2534 17.6842 18.0508L17.6708 18.0342C16.477 17.8349 15.3617 17.3091 14.4483 16.515L14.4567 16.5217V16.5233Z" fill="#929FAD"/>
<path d="M2.35083 12.4017C2.92431 11.6786 3.37709 10.8676 3.69167 10L3.71083 9.94002L3.87583 9.47252L3.51583 9.19669C2.4575 8.38502 1.875 7.29502 1.875 6.12836C1.875 3.78335 4.25833 1.87585 7.1875 1.87585C9.3425 1.87585 11.2017 2.90835 12.0342 4.38752C12.1883 4.38002 12.3442 4.37585 12.5 4.37585C12.8133 4.37585 13.1236 4.39113 13.4308 4.42169C13.1092 3.58835 12.5508 2.82752 11.7825 2.19669C10.5492 1.18419 8.9175 0.625854 7.1875 0.625854C5.4575 0.625854 3.825 1.18335 2.5925 2.19669C1.32417 3.23919 0.625 4.63502 0.625 6.12836C0.625 7.52669 1.26333 8.87419 2.3925 9.88752C2.02319 10.7737 1.48484 11.5796 0.8075 12.26L0.625 12.4425V13.7509H1.25C2.42177 13.7524 3.57722 13.4762 4.62167 12.945L4.57917 12.9642C4.46556 12.5389 4.39932 12.1024 4.38167 11.6625L4.38083 11.65C3.76595 12.0138 3.09174 12.2663 2.38917 12.3959L2.35083 12.4017Z" fill="#929FAD"/>
</g>
<defs>
<clipPath id="clip0_32_18">
<rect width="20" height="20" fill="white"/>
</clipPath>
</defs>
</svg>