<svg width="18" height="18" viewBox="0 0 18 18" fill="none" xmlns="http://www.w3.org/2000/svg">
<g id="cil:chat-bubble" clip-path="url(#clip0_37_726)">
<path id="Vector" d="M15.7575 13.7992C16.8308 12.843 17.4375 11.5688 17.4375 10.2458C17.4375 8.84025 16.7797 7.5255 15.5842 6.54375C14.4217 5.58825 12.882 5.0625 11.25 5.0625C9.618 5.0625 8.07825 5.58825 6.91575 6.54375C5.721 7.5255 5.0625 8.84025 5.0625 10.2458C5.0625 11.6513 5.72025 12.966 6.91575 13.9478C8.07825 14.9025 9.618 15.429 11.25 15.429C11.4675 15.429 11.6865 15.4193 11.9033 15.4005L12.2737 15.7215C13.5493 16.831 15.1837 17.4406 16.8743 17.4375H17.4368V16.2405L17.2717 16.0755C16.6333 15.4354 16.1245 14.678 15.7733 13.845L15.756 13.7992H15.7575ZM13.011 14.871L12.267 14.226L12.0187 14.2568C11.7877 14.2868 11.5208 14.3032 11.25 14.3032C8.4585 14.3032 6.1875 12.483 6.1875 10.245C6.1875 8.007 8.4585 6.18675 11.25 6.18675C14.0415 6.18675 16.3125 8.007 16.3125 10.245C16.3125 11.3595 15.756 12.4005 14.7465 13.1752L14.4225 13.4235L14.5718 13.8465C14.8804 14.7167 15.3349 15.528 15.9158 16.2457L15.9037 16.2308C14.8293 16.0514 13.8255 15.5782 13.0035 14.8635L13.011 14.8695V14.871Z" fill="white"/>
<path id="Vector_2" d="M2.11575 11.1615C2.63188 10.5108 3.03938 9.78085 3.3225 9.00001L3.33975 8.94601L3.48825 8.52526L3.16425 8.27701C2.21175 7.54651 1.6875 6.56551 1.6875 5.51551C1.6875 3.40501 3.8325 1.68826 6.46875 1.68826C8.40825 1.68826 10.0815 2.61751 10.8307 3.94876C10.9695 3.94201 11.1097 3.93826 11.25 3.93826C11.532 3.93826 11.8113 3.95201 12.0878 3.97951C11.7983 3.22951 11.2957 2.54476 10.6042 1.97701C9.49425 1.06576 8.02575 0.563263 6.46875 0.563263C4.91175 0.563263 3.4425 1.06501 2.33325 1.97701C1.19175 2.91526 0.5625 4.17151 0.5625 5.51551C0.5625 6.77401 1.137 7.98676 2.15325 8.89876C1.82087 9.69637 1.33635 10.4216 0.72675 11.034L0.5625 11.1983V12.3758H1.125C2.17959 12.3771 3.21949 12.1286 4.1595 11.6505L4.12125 11.6678C4.019 11.285 3.95939 10.8921 3.9435 10.4963L3.94275 10.485C3.38935 10.8124 2.78256 11.0396 2.15025 11.1563L2.11575 11.1615Z" fill="white"/>
</g>
<defs>
<clipPath id="clip0_37_726">
<rect width="18" height="18" fill="white"/>
</clipPath>
</defs>
</svg>
