<svg width="14" height="20" viewBox="0 0 14 20" fill="none" xmlns="http://www.w3.org/2000/svg">
<path id="Vector" d="M8.09069 0.126271C7.89253 -0.0190339 7.62946 -0.0406917 7.41024 0.0701171C7.19042 0.181106 7.05214 0.405963 7.05214 0.651878V13.3056C6.38512 12.7321 5.52055 12.383 4.57367 12.383C2.47364 12.383 0.764893 14.0912 0.764893 16.1912C0.764893 18.2918 2.47364 19.9999 4.57367 19.9999C6.67442 19.9999 8.38256 18.2917 8.38256 16.1912C8.38256 15.998 8.35688 2.16445 8.35688 2.16445C9.71803 3.65163 11.9302 6.82525 11.9302 11.7382C11.9302 12.0982 12.2219 12.3907 12.5825 12.3907C12.9425 12.3907 13.2351 12.0982 13.2351 11.7382C13.2351 3.99378 8.30103 0.280516 8.09069 0.126271ZM4.57373 18.6951C3.19303 18.6951 2.06982 17.5718 2.06982 16.1913C2.06982 14.8112 3.19309 13.6879 4.57373 13.6879C5.95437 13.6879 7.07769 14.8112 7.07769 16.1913C7.07769 17.5719 5.95437 18.6951 4.57373 18.6951Z" fill="#929FAD"/>
</svg>
