<svg xmlns="http://www.w3.org/2000/svg" width="216" height="131" viewBox="0 0 216 131" fill="none">
  <g clip-path="url(#clip0_37_337)">
    <path d="M137.369 131C180.796 131 216 127.834 216 123.928C216 120.022 180.796 116.855 137.369 116.855C93.9422 116.855 58.7378 120.022 58.7378 123.928C58.7378 127.834 93.9422 131 137.369 131Z" fill="#3F3D56"/>
    <path opacity="0.3" d="M98.9348 57.7874L184.283 57.7874V2.28882e-05L98.9348 2.28882e-05V57.7874Z" fill="#3F3D56"/>
    <path d="M178.836 20.191V17.9305C178.836 10.9519 173.178 5.29468 166.2 5.29468C159.221 5.29468 153.564 10.9519 153.564 17.9305V20.1911C153.564 27.1696 159.221 32.8269 166.2 32.8269C173.178 32.8269 178.836 27.1696 178.836 20.191Z" fill="#F2F2F2"/>
    <path d="M113.613 6.95874L137.977 6.95874V5.29471L113.613 5.29471V6.95874Z" fill="#F2F2F2"/>
    <path d="M153.564 38.7266H162.189V37.0625H153.564V38.7266Z" fill="#F2F2F2"/>
    <path d="M153.866 41.7521H178.533V40.088H153.866V41.7521Z" fill="#F2F2F2"/>
    <path d="M108.62 13.0098L143.728 13.0098V11.3457L108.62 11.3457V13.0098Z" fill="#F2F2F2"/>
    <path d="M108.62 17.6992L143.728 17.6992V16.0352L108.62 16.0352V17.6992Z" fill="#F2F2F2"/>
    <path d="M108.62 22.3888L143.728 22.3888V20.7248L108.62 20.7248V22.3888Z" fill="#F2F2F2"/>
    <path d="M108.62 27.0784L143.728 27.0784V25.4143L108.62 25.4143V27.0784Z" fill="#F2F2F2"/>
    <path d="M108.62 31.7679L143.728 31.7679V30.1039L108.62 30.1039V31.7679Z" fill="#F2F2F2"/>
    <path d="M108.62 36.4574L143.728 36.4574V34.7934L108.62 34.7934V36.4574Z" fill="#F2F2F2"/>
    <path d="M108.62 41.147L143.728 41.147V39.4829L108.62 39.4829V41.147Z" fill="#F2F2F2"/>
    <path d="M157.359 21.0161C157.733 20.75 158.146 20.5431 158.583 20.4026C161.353 19.3721 164.256 18.7404 167.205 18.5264C169.769 18.3446 172.547 18.5605 174.55 20.1712C174.861 20.3997 175.116 20.6965 175.295 21.0389C175.547 21.5824 175.47 22.2141 175.389 22.8075C175.37 23.0376 175.312 23.2629 175.217 23.4732C174.948 23.9861 174.284 24.1658 173.708 24.1043C173.132 24.0428 172.591 23.799 172.023 23.686C171.671 23.6247 171.315 23.5885 170.958 23.5777L167.394 23.3848C165.177 23.2648 162.931 23.1468 160.757 23.594C160.087 23.7143 159.441 23.9371 158.839 24.2546C158.343 24.5333 158.008 24.9333 157.547 24.4185C156.738 23.514 156.29 21.8516 157.359 21.0161Z" fill="#2F2E41"/>
    <path d="M162.883 22.592C162.883 22.592 167.678 20.4433 169.496 22.9225C171.315 25.4017 168.504 24.41 168.504 24.41L165.363 25.4017L161.891 24.7406L162.883 22.592Z" fill="#F2F2F2"/>
    <path d="M163.131 21.0218C163.131 21.0218 163.792 24.1621 163.296 24.9885C162.8 25.8149 166.107 26.9718 166.107 26.9718L169.248 25.6496C169.248 25.6496 168.422 20.526 169.248 19.5343L163.131 21.0218Z" fill="#FFB9B9"/>
    <path opacity="0.1" d="M163.131 21.0218C163.131 21.0218 163.792 24.1621 163.296 24.9885C162.8 25.8149 166.107 26.9718 166.107 26.9718L169.248 25.6496C169.248 25.6496 168.422 20.526 169.248 19.5343L163.131 21.0218Z" fill="black"/>
    <path d="M170.736 17.8816C170.735 19.1963 170.212 20.4568 169.282 21.3864C168.352 22.3161 167.091 22.8388 165.776 22.8399C165.48 22.8404 165.186 22.8138 164.895 22.7606C163.967 22.593 163.105 22.1643 162.412 21.5247C161.719 20.8852 161.223 20.0613 160.981 19.1497C160.74 18.2381 160.764 17.2767 161.05 16.3781C161.336 15.4796 161.872 14.6812 162.596 14.0766C163.32 13.472 164.201 13.0862 165.137 12.9646C166.072 12.843 167.023 12.9906 167.877 13.39C168.732 13.7894 169.454 14.4241 169.961 15.2197C170.467 16.0152 170.736 16.9386 170.736 17.8816Z" fill="#FFB9B9"/>
    <path d="M173.731 32.978H157.913L158.272 31.4214L159.824 24.6579L161.619 23.4462L161.621 23.4447L162.463 22.8743L162.883 22.5915C162.883 22.5915 163.131 22.7049 163.417 22.8592C163.5 22.9061 163.585 22.9545 163.67 23.006C163.671 23.0045 163.671 23.006 163.671 23.006C163.808 23.0856 163.939 23.1762 164.061 23.2767C164.084 23.2979 164.104 23.3161 164.124 23.3357C164.438 23.6504 165.357 25.3205 166.876 24.4658C166.953 24.4236 167.027 24.3772 167.099 24.3266C167.495 24.0526 167.872 23.753 168.229 23.4295C168.548 23.1376 168.756 22.9122 168.925 22.7563C169.001 22.6806 169.088 22.6164 169.182 22.5657C169.254 22.5283 169.333 22.5091 169.414 22.5098C169.91 22.5098 170.572 23.5006 170.572 23.5006L170.591 23.5581L170.593 23.5627L172.68 29.8255L173.731 32.978Z" fill="#F2F2F2"/>
    <path d="M157.913 32.9781H162.707C162.718 32.424 162.689 31.87 162.621 31.3201C162.474 30.2142 162.114 29.1493 161.887 28.0571C161.687 27.0999 161.59 26.1242 161.598 25.1465C161.599 25.0119 161.602 24.8757 161.614 24.7396C161.626 24.4278 161.716 24.1241 161.876 23.8561C161.99 23.6822 162.145 23.5339 162.266 23.3675C162.309 23.313 162.346 23.2548 162.377 23.1936V23.192C162.392 23.162 162.406 23.1312 162.418 23.0998C162.444 23.0274 162.46 22.9514 162.463 22.8744C162.49 22.3751 162.038 21.8941 161.549 21.6884C160.863 21.4308 160.112 21.4006 159.408 21.6021C158.71 21.8039 158.035 22.0798 157.395 22.4251C157.179 22.531 156.964 22.6399 156.757 22.7609C156.509 22.9012 156.282 23.0742 156.08 23.2752C155.566 23.8062 155.34 24.546 155.159 25.2615C154.986 25.8084 154.926 26.3851 154.985 26.9558C154.986 26.9739 154.991 26.9936 154.994 27.0118C155.174 27.9542 155.943 28.6622 156.353 29.5305C156.828 30.538 156.796 31.7119 156.607 32.8102C156.598 32.8661 156.587 32.9221 156.577 32.9781H157.913V32.9781Z" fill="#2F2E41"/>
    <path d="M177.428 26.9255C176.826 28.9036 176.39 30.928 176.122 32.9781H169.288C169.11 32.491 168.932 32.0034 168.754 31.5152C168.612 31.1469 168.49 30.7712 168.389 30.3897C168.281 29.9462 168.23 29.4908 168.236 29.0343C168.236 28.9254 168.241 28.815 168.25 28.706C168.251 28.7052 168.251 28.7041 168.251 28.703C168.251 28.7019 168.251 28.7008 168.25 28.7C168.292 28.1243 168.425 27.5589 168.645 27.0254C168.746 26.7828 168.862 26.5468 168.993 26.3189C169.311 25.7441 169.695 25.2025 170.037 24.6397C170.25 24.2959 170.436 23.9357 170.593 23.5627C170.592 23.5618 170.593 23.561 170.593 23.5602C170.593 23.5594 170.594 23.5587 170.594 23.5581C170.798 23.0824 170.905 22.5706 170.907 22.0529C170.897 21.3858 169.768 20.2225 170.995 20.3344C172.67 20.4857 174.109 21.4494 175.421 22.5476C175.771 22.8411 176.113 23.1451 176.447 23.4447C176.965 23.9106 177.511 24.4189 177.667 25.0981C177.692 25.2064 177.707 25.3168 177.711 25.4279C177.702 25.9395 177.606 26.4459 177.428 26.9255Z" fill="#2F2E41"/>
    <path d="M167.185 25.1012C167.013 24.6365 166.749 24.2112 166.409 23.8505C166.066 23.5608 165.66 23.3552 165.224 23.2503C164.658 23.0888 164.073 23.005 163.485 23.0012C162.785 22.9968 161.973 23.1846 161.676 23.8183C161.44 24.3216 161.623 24.9175 161.861 25.42C161.962 25.6802 162.131 25.9087 162.351 26.0819C162.653 26.2858 163.043 26.2793 163.401 26.3477C163.956 26.4885 164.482 26.7266 164.954 27.0509L166.18 27.792L168.287 29.0649C168.231 29.0313 168.251 27.5873 168.186 27.3506C167.978 26.5882 167.508 25.8231 167.185 25.1012Z" fill="#FFB9B9"/>
    <path d="M170.612 15.2975C170.524 15.0009 170.329 14.7473 170.066 14.585C170.079 14.2673 170.04 13.9496 169.95 13.6447C169.65 12.757 168.939 12.8078 168.267 12.4154C167.976 12.2451 167.994 12.0946 167.842 11.8149C167.643 11.4483 167.346 11.1447 166.983 10.9388C166.552 10.6644 166.098 10.3819 165.588 10.3472C164.517 10.2742 163.696 11.2811 162.673 11.6042C162.222 11.7467 161.737 11.7525 161.283 11.8872C160.83 12.0218 160.377 12.3433 160.31 12.8114C160.279 13.0275 160.334 13.2492 160.302 13.4653C160.239 13.8946 159.862 14.1954 159.61 14.5485C159.052 15.3295 159.116 16.4329 159.562 17.2826C159.656 17.4584 159.764 17.6267 159.884 17.7858C159.921 18.1875 160.036 18.578 160.223 18.9354C160.669 19.7851 161.437 20.4201 162.239 20.9477C162.173 20.6659 162.134 20.3786 162.12 20.0896C162.109 19.9933 162.121 19.8956 162.157 19.8053C162.246 19.6187 162.482 19.569 162.662 19.4668C163.034 19.2551 163.181 18.7866 163.191 18.3583C163.202 17.9299 163.111 17.5008 163.156 17.0747C163.158 16.9767 163.18 16.8802 163.222 16.7913C163.263 16.7025 163.323 16.6232 163.396 16.5588C163.534 16.4804 163.691 16.4429 163.849 16.4509C164.613 16.4197 165.411 16.4057 166.084 16.0448C166.301 15.9005 166.535 15.7825 166.78 15.693C167.352 15.5438 167.937 15.9448 168.267 16.4357C168.597 16.9265 168.761 17.5106 169.066 18.0176C169.37 18.5247 169.896 18.9768 170.484 18.9168C170.517 18.9168 170.55 18.9099 170.58 18.8965C170.611 18.883 170.638 18.8633 170.66 18.8386C170.685 18.7931 170.697 18.741 170.692 18.689L170.725 16.4404C170.753 16.0557 170.714 15.6692 170.612 15.2975Z" fill="#2F2E41"/>
    <path d="M157.53 30.3141C157.638 31.1991 157.703 32.0871 157.725 32.9781H153.564V29.4821C153.585 29.3974 153.608 29.3142 153.635 29.231C153.895 28.4292 154.442 27.7575 154.915 27.0602C154.938 27.0254 154.962 26.9906 154.985 26.9558C155.186 26.6616 155.36 26.3491 155.502 26.0224C155.571 25.8621 155.68 25.086 155.795 25.0195C156.288 24.7336 156.689 25.9559 156.757 26.2282C156.999 27.1978 157.209 28.1766 157.368 29.1644C157.43 29.5472 157.484 29.9304 157.53 30.3141Z" fill="#2F2E41"/>
    <path d="M178.56 32.9781H169.007C168.925 32.7859 168.845 32.5938 168.76 32.4032C168.164 31.0562 167.394 29.7933 166.469 28.647C166.316 28.4955 166.217 28.2985 166.186 28.0858C166.183 27.9975 166.204 27.91 166.248 27.8332C166.393 27.5624 166.778 27.4035 167.089 27.275C167.412 27.1453 167.708 26.9588 167.964 26.7243C168.191 26.5205 168.364 26.2645 168.469 25.9785C168.497 25.8947 168.519 25.8087 168.533 25.7214C168.577 25.7788 168.622 25.8378 168.666 25.8953C168.774 26.0375 168.883 26.1782 168.993 26.3189C170.052 27.6789 171.216 29.0192 172.679 29.8255C173.062 30.0384 173.465 30.2103 173.884 30.3383C173.924 30.3559 173.967 30.365 174.011 30.365C174.055 30.365 174.098 30.3559 174.138 30.3383C174.2 30.2876 174.239 30.2149 174.249 30.1356C174.379 29.591 174.424 29.0298 174.519 28.4776C174.695 27.473 175.031 26.5034 175.517 25.6064C175.788 25.1026 176.668 23.2616 177.227 24.4219C177.387 24.7562 177.548 25.0915 177.711 25.4279C177.812 25.6412 177.915 25.853 178.018 26.0663C178.398 26.743 178.571 27.5161 178.516 28.29C178.531 29.8542 178.546 31.4169 178.56 32.9781Z" fill="#2F2E41"/>
    <path opacity="0.1" d="M157.913 32.9782H158.741L158.272 31.4215L157.595 29.1781C157.603 29.5579 157.581 29.9378 157.53 30.3142C157.428 31.0922 157.205 31.8495 156.87 32.5591C156.805 32.6968 156.736 32.836 156.68 32.9782H157.913Z" fill="black"/>
    <path opacity="0.1" d="M174.774 28.1942C174.657 28.5076 174.763 28.8541 174.853 29.1761C175.113 30.1102 175.235 31.0774 175.214 32.0468C175.218 32.0638 175.217 32.0814 175.212 32.0981C175.208 32.1148 175.199 32.1301 175.187 32.1425C175.174 32.1549 175.159 32.1642 175.143 32.1693C175.126 32.1745 175.109 32.1754 175.092 32.1721C174.71 32.1954 174.273 32.1979 174.014 31.9167L174.774 28.1942Z" fill="black"/>
    <path opacity="0.3" d="M85.3484 0.594849H0V58.3822H85.3484V0.594849Z" fill="#3F3D56"/>
    <path d="M30.7194 20.7858V18.5252C30.7194 11.5466 25.0621 5.8894 18.0836 5.8894C11.105 5.8894 5.44775 11.5467 5.44775 18.5252V20.7858C5.44775 27.7644 11.105 33.4216 18.0836 33.4216C25.0621 33.4216 30.7194 27.7643 30.7194 20.7858Z" fill="#F2F2F2"/>
    <path d="M70.6698 5.8894H46.3062V7.55344H70.6698V5.8894Z" fill="#F2F2F2"/>
    <path d="M14.3761 37.6573H5.75049V39.3214H14.3761V37.6573Z" fill="#F2F2F2"/>
    <path d="M30.4168 40.6829H5.75049V42.3469H30.4168V40.6829Z" fill="#F2F2F2"/>
    <path d="M75.6635 11.9404H40.5557V13.6045H75.6635V11.9404Z" fill="#F2F2F2"/>
    <path d="M75.6635 16.63H40.5557V18.294H75.6635V16.63Z" fill="#F2F2F2"/>
    <path d="M75.6635 21.3196H40.5557V22.9836H75.6635V21.3196Z" fill="#F2F2F2"/>
    <path d="M75.6635 26.0092H40.5557V27.6732H75.6635V26.0092Z" fill="#F2F2F2"/>
    <path d="M75.6635 30.6986H40.5557V32.3626H75.6635V30.6986Z" fill="#F2F2F2"/>
    <path d="M75.6635 35.3882H40.5557V37.0522H75.6635V35.3882Z" fill="#F2F2F2"/>
    <path d="M75.6635 40.0778H40.5557V41.7418H75.6635V40.0778Z" fill="#F2F2F2"/>
    <path d="M30.0324 33.5729H26.7471C26.4944 32.8937 26.2699 32.2059 26.0737 31.5095C25.9442 30.6907 25.5709 29.93 25.0023 29.3266C24.8287 29.1331 24.6741 28.9234 24.5407 28.7003C24.2591 28.151 24.1574 27.527 24.2502 26.9167C24.2691 26.7469 24.2974 26.5782 24.3349 26.4115C24.4787 25.7655 24.7193 25.1453 24.9206 24.516C24.9631 24.3882 25.0407 24.2749 25.1445 24.1891C25.2483 24.1032 25.3742 24.0482 25.5077 24.0304C25.7243 23.9941 25.9467 24.0198 26.1493 24.1045C26.1941 24.1228 26.2372 24.145 26.278 24.1711C26.6366 24.3874 26.8227 24.8291 26.9726 25.233C27.6581 27.0726 28.3431 28.9121 29.0276 30.7516C29.1607 31.1086 29.2939 31.4666 29.4271 31.8256C29.6238 32.3521 29.819 32.8785 29.9855 33.4155C30.0021 33.4685 30.0173 33.5199 30.0324 33.5729Z" fill="#D0CDE1"/>
    <path d="M16.3558 9.3613C15.5389 9.63707 14.7989 10.2821 14.6317 11.1275C14.5541 11.5195 14.6017 11.9269 14.5364 12.321C14.3851 13.2352 13.6673 13.9333 13.0052 14.5818C12.3432 15.2302 11.6595 15.9837 11.6112 16.909C11.5582 17.9222 12.2933 18.8715 12.1661 19.8781C12.0183 21.0475 10.7827 21.8053 10.4773 22.9439C10.2733 23.7041 10.5232 24.523 10.9344 25.1943C11.718 26.4734 13.0574 27.3418 14.4837 27.8074C15.9101 28.2729 17.4291 28.3709 18.9295 28.3866C20.7563 28.4057 22.7398 28.2489 24.1124 27.0436C24.8965 26.349 25.3889 25.3837 25.4909 24.3414C25.6213 22.9453 25.0384 21.5027 25.4404 20.1593C25.6935 19.3138 26.3281 18.5417 26.2334 17.6643C26.1408 16.8064 25.3913 16.1983 24.8771 15.5053C24.397 14.8582 24.1057 14.0941 23.8202 13.3407L22.8433 10.763C22.6512 10.2563 22.4404 9.72334 22.0124 9.39075C21.2112 8.76813 19.9229 8.89046 18.9861 9.01888C18.117 9.13801 17.1916 9.07914 16.3558 9.3613Z" fill="#2F2E41"/>
    <path d="M17.1115 17.8563C17.1115 17.8563 17.2071 20.7239 16.9203 21.0107C16.6334 21.2974 18.0677 23.2091 18.0677 23.2091L20.6493 23.1135L21.988 22.0621L20.8406 20.5327C20.8406 20.5327 20.3625 18.0475 20.745 17.474C21.1274 16.9005 17.1115 17.8563 17.1115 17.8563Z" fill="#A0616A"/>
    <path opacity="0.1" d="M17.1115 17.8563C17.1115 17.8563 17.2071 20.7239 16.9203 21.0107C16.6334 21.2974 18.0677 23.2091 18.0677 23.2091L20.6493 23.1135L21.988 22.0621L20.8406 20.5327C20.8406 20.5327 20.3625 18.0475 20.745 17.474C21.1274 16.9005 17.1115 17.8563 17.1115 17.8563Z" fill="black"/>
    <path d="M18.6888 18.9556C20.5899 18.9556 22.131 17.415 22.131 15.5145C22.131 13.6141 20.5899 12.0735 18.6888 12.0735C16.7877 12.0735 15.2466 13.6141 15.2466 15.5145C15.2466 17.415 16.7877 18.9556 18.6888 18.9556Z" fill="#A0616A"/>
    <path d="M20.4531 33.5729H23.2436C23.348 33.3838 23.4464 33.1871 23.5599 33.0086V33.0071C23.684 32.7913 23.8584 32.6086 24.0683 32.4746C24.2018 32.4135 24.3282 32.3379 24.4451 32.2492C24.5571 32.1279 24.6362 31.98 24.6752 31.8196C24.8674 31.2194 24.9733 30.595 24.9899 29.965C24.9945 29.7532 24.9899 29.5384 25.002 29.3266C25.008 29.1611 25.0293 28.9965 25.0656 28.8349C25.1614 28.5064 25.3003 28.1921 25.4787 27.9001C25.857 27.2118 26.2363 26.5235 26.6167 25.8351C26.6852 25.6412 26.7116 25.4349 26.6939 25.23C26.6857 24.9536 26.6008 24.685 26.4487 24.454C26.3958 24.3587 26.3382 24.2634 26.2777 24.1711C26.0443 23.7988 25.7724 23.452 25.4666 23.1364C24.8177 22.4561 24.0302 21.9232 23.1573 21.5737C23.0478 21.5369 22.9436 21.486 22.8471 21.4224C22.7333 21.3263 22.637 21.2111 22.5626 21.0821C22.26 20.6267 21.8907 20.1139 21.3444 20.1426C21.2555 20.098 21.1586 20.0716 21.0594 20.0648C20.9601 20.0581 20.8605 20.0712 20.7664 20.1033C20.7376 20.1108 20.7093 20.1199 20.6816 20.1305C20.4729 20.223 20.2702 20.3286 20.0748 20.4467C19.5722 20.7075 19.0027 20.8108 18.4405 20.7432C18.3745 20.7386 18.31 20.7222 18.2498 20.6948C18.186 20.6543 18.1271 20.6066 18.0743 20.5526C17.9362 20.4396 17.7705 20.3651 17.5943 20.337C17.418 20.3088 17.2375 20.3279 17.071 20.3923C16.9147 20.4479 16.7765 20.5452 16.6715 20.6736C16.5716 20.7992 16.502 20.9505 16.3915 21.0685C16.1055 21.374 15.6334 21.3861 15.2157 21.3846C14.3483 21.3604 13.481 21.4401 12.6326 21.6221C11.8874 21.7874 11.191 22.1241 10.5987 22.6054L10.5972 22.6069C10.5155 22.6765 10.4398 22.7476 10.3642 22.8233C10.192 22.9853 10.055 23.181 9.96163 23.3981C9.84661 23.6946 9.86176 24.0289 9.75734 24.33C9.64232 24.6673 9.38659 24.9426 9.28369 25.2815C9.205 25.5387 9.21559 25.823 9.08545 26.056C9.0915 26.0606 9.09604 26.0651 9.10209 26.0696C9.65292 26.5537 10.1236 27.1891 10.6759 27.6686C10.9965 27.9128 11.2676 28.2157 11.4749 28.5611C11.5148 28.6388 11.5477 28.7198 11.5733 28.8032C11.6354 29.0924 11.6628 29.3879 11.655 29.6836C11.7246 31.098 12.4918 32.3809 13.3498 33.5063C13.3665 33.529 13.3831 33.5517 13.4013 33.5729L20.4531 33.5729Z" fill="#D0CDE1"/>
    <path d="M11.4752 28.5612C11.345 29.4643 11.2139 30.3669 11.0817 31.269C11.0216 31.7522 10.9317 32.2311 10.8124 32.7031C10.7337 32.9951 10.6323 33.281 10.5612 33.5729H6.62061C6.62261 33.4094 6.63525 33.2462 6.65844 33.0843C6.7599 32.5028 6.92483 31.9341 7.15025 31.3885C7.60878 30.1511 8.06679 28.9126 8.5243 27.6732C8.71951 27.1452 8.88748 26.5931 9.10237 26.0697C9.1402 25.9729 9.18105 25.876 9.22495 25.7822C9.45344 25.28 10.0875 25.4858 10.5566 25.5614C10.6854 25.5774 10.811 25.6131 10.9289 25.6673C11.0715 25.7458 11.1918 25.8593 11.2785 25.997C11.7234 26.6551 11.6265 27.5249 11.5115 28.3116C11.4994 28.3948 11.4873 28.478 11.4752 28.5612Z" fill="#D0CDE1"/>
    <path d="M23.5604 33.0086C23.5664 33.0298 23.6315 33.2552 23.7389 33.5728H20.4536C22.0819 33.293 23.5604 33.0071 23.5604 33.0071V33.0086Z" fill="#2F2E41"/>
    <path d="M18.9757 15.5144C21.0352 15.5144 22.7047 14.6158 22.7047 13.5072C22.7047 12.3986 21.0352 11.4999 18.9757 11.4999C16.9161 11.4999 15.2466 12.3986 15.2466 13.5072C15.2466 14.6158 16.9161 15.5144 18.9757 15.5144Z" fill="#2F2E41"/>
    <path d="M140.024 21.8683H54.6758V79.6556H140.024V21.8683Z" fill="#3F3D56"/>
    <path opacity="0.1" d="M127.616 75.7225C133.132 75.7225 137.603 75.2484 137.603 74.6635C137.603 74.0787 133.132 73.6046 127.616 73.6046C122.1 73.6046 117.628 74.0787 117.628 74.6635C117.628 75.2484 122.1 75.7225 127.616 75.7225Z" fill="black"/>
    <path d="M85.3951 42.0593V39.7988C85.3951 32.8202 79.7379 27.163 72.7593 27.163C65.7808 27.163 60.1235 32.8202 60.1235 39.7988V42.0593C60.1235 49.0379 65.7808 54.6951 72.7593 54.6951C79.7379 54.6951 85.3951 49.0379 85.3951 42.0593Z" fill="#F2F2F2"/>
    <path d="M68.2612 39.8039C68.3433 39.8288 68.4314 39.8246 68.5107 39.7918C68.59 39.7591 68.6555 39.6999 68.696 39.6243C69.0455 39.0738 68.402 38.3639 68.5413 37.7269C68.653 37.2165 69.2331 36.9136 69.3517 36.4049C69.4669 35.9105 69.1118 35.3533 69.3518 34.906C69.5399 34.5556 70.0096 34.4634 70.4026 34.5248C70.7957 34.5862 71.1687 34.7589 71.5658 34.7831C72.0949 34.8153 72.5993 34.5825 73.1166 34.4671C73.634 34.3518 74.2651 34.3969 74.5694 34.8308C74.9602 35.3879 74.5638 36.1636 74.6999 36.8302C74.8079 37.3596 75.2512 37.7979 75.2608 38.3381C75.2641 38.5301 74.7592 38.3755 74.7861 38.5656C74.8129 38.7558 74.5743 38.5883 74.765 38.5657C74.8429 38.5467 74.9127 38.5033 74.9643 38.4419C75.016 38.3806 75.0467 38.3044 75.0521 38.2244C75.0748 38.066 75.3725 38.0132 75.3691 37.8533C75.361 37.4784 76.039 37.7312 76.1507 37.3732C76.4074 36.5387 76.3548 35.6397 76.0023 34.8409C75.8206 34.5146 75.6756 34.1692 75.5698 33.811C75.4702 33.314 75.6269 32.7804 75.4626 32.3008C75.2413 31.6545 74.5087 31.325 73.8286 31.2581C73.1485 31.1912 72.4574 31.311 71.7812 31.2123C71.1754 31.1239 70.589 30.8615 69.978 30.8995C69.2448 30.9451 68.6068 31.4173 68.0986 31.9476C67.5904 32.4778 67.1593 33.0876 66.5821 33.5418C66.4054 33.6634 66.2423 33.8037 66.0958 33.9603C65.8018 34.3184 65.772 34.8286 65.8538 35.2846C65.9356 35.7406 66.1135 36.1756 66.1887 36.6327C66.2593 37.0623 66.2375 37.5012 66.2679 37.9355C66.275 38.3736 66.4077 38.8004 66.6502 39.1653C66.7549 39.3075 66.8908 39.4239 67.0473 39.5057C67.2039 39.5874 67.377 39.6324 67.5536 39.6372C67.6759 39.64 67.7793 39.5301 67.9027 39.5588C68.0571 39.5946 68.1242 39.7411 68.2612 39.8039Z" fill="#2F2E41"/>
    <path d="M62.7036 54.8464C62.8141 53.3321 62.8973 52.2006 62.8973 52.2006L63.6116 50.3187L65.9042 54.8464L62.7036 54.8464Z" fill="#575A89"/>
    <path opacity="0.1" d="M62.7036 54.8464C62.8141 53.3321 62.8973 52.2006 62.8973 52.2006L63.6116 50.3187L65.9042 54.8464L62.7036 54.8464Z" fill="black"/>
    <path d="M68.0166 39.9579C68.0166 39.9579 70.1543 45.3975 68.9235 46.4337C67.6927 47.4698 75.7902 44.6852 75.7902 44.6852L75.5959 43.9729C75.5959 43.9729 72.9399 42.9367 74.2355 39.9579C75.5311 36.979 68.0166 39.9579 68.0166 39.9579Z" fill="#A0616A"/>
    <path opacity="0.1" d="M68.0166 39.9579C68.0166 39.9579 70.1543 45.3975 68.9235 46.4337C67.6927 47.4698 75.7902 44.6852 75.7902 44.6852L75.5959 43.9729C75.5959 43.9729 72.9399 42.9367 74.2355 39.9579C75.5311 36.979 68.0166 39.9579 68.0166 39.9579Z" fill="black"/>
    <path d="M71.0615 42.1596C73.5659 42.1596 75.5961 40.1301 75.5961 37.6266C75.5961 35.123 73.5659 33.0935 71.0615 33.0935C68.5571 33.0935 66.5269 35.123 66.5269 37.6266C66.5269 40.1301 68.5571 42.1596 71.0615 42.1596Z" fill="#A0616A"/>
    <path d="M82.0736 47.4052C82.0736 47.4052 82.0554 47.7652 82.0236 48.3945C81.9586 49.6758 81.842 52.0766 81.7255 54.8464H64.1474C63.6881 54.2315 63.312 53.5585 63.0291 52.8451C62.9525 52.6382 62.9081 52.4209 62.8974 52.2006C62.8006 50.4836 64.3396 48.0874 65.4261 47.859C66.6564 47.5988 68.9883 45.1391 68.9883 45.1391C68.9958 45.2327 69.0269 45.3229 69.0788 45.4012C69.1307 45.4796 69.2016 45.5434 69.2849 45.5869V45.5884C69.473 45.6855 69.6833 45.7314 69.8948 45.7215C70.6544 45.7215 73.9957 44.18 75.0686 43.6762C75.279 43.5779 75.4016 43.5189 75.4016 43.5189C76.6389 44.0528 77.9172 44.4863 79.2241 44.8154C79.8762 44.9779 80.4778 45.2996 80.975 45.7516C81.4723 46.2035 81.8498 46.7717 82.0736 47.4052Z" fill="#575A89"/>
    <path d="M67.4838 39.3505C67.5659 39.3754 67.6541 39.3712 67.7334 39.3384C67.8127 39.3057 67.8781 39.2465 67.9187 39.1709C68.2682 38.6204 67.6247 37.9105 67.764 37.2735C67.8756 36.7632 68.4557 36.4603 68.5743 35.9515C68.6896 35.4572 68.3345 34.8999 68.5745 34.4527C68.7625 34.1022 69.2323 34.01 69.6253 34.0714C70.0183 34.1328 70.3914 34.3055 70.7885 34.3297C71.3176 34.362 71.8219 34.1291 72.3393 34.0138C72.8566 33.8984 73.4877 33.9436 73.7921 34.3774C74.1829 34.9345 73.7864 35.7102 73.9225 36.3768C74.0306 36.9062 75.2617 37.2778 75.3733 36.9198C75.6301 36.0854 75.5774 35.1863 75.2249 34.3875C75.0433 34.0612 74.8982 33.7158 74.7924 33.3577C74.6928 32.8606 74.8496 32.327 74.6853 31.8474C74.4639 31.2011 73.7314 30.8717 73.0513 30.8048C72.3712 30.7378 71.6801 30.8576 71.0038 30.7589C70.3981 30.6705 69.8116 30.4081 69.2006 30.4461C68.4675 30.4917 67.8295 30.964 67.3213 31.4942C66.813 32.0244 66.3819 32.6342 65.8047 33.0885C65.628 33.21 65.465 33.3503 65.3185 33.5069C65.0245 33.8651 64.9947 34.3752 65.0765 34.8312C65.1582 35.2872 65.3362 35.7222 65.4113 36.1793C65.4819 36.609 65.4602 37.0479 65.4906 37.4822C65.4977 37.9202 65.6303 38.347 65.8728 38.712C65.9776 38.8541 66.1134 38.9705 66.27 39.0523C66.4265 39.1341 66.5997 39.179 66.7763 39.1838C66.8986 39.1866 67.0019 39.0767 67.1254 39.1054C67.2797 39.1412 67.3469 39.2877 67.4838 39.3505Z" fill="#2F2E41"/>
    <path opacity="0.1" d="M84.3208 54.8464H79.1908C78.8004 51.9843 78.478 48.992 78.478 48.992L79.5146 48.5382L81.6211 47.4052C81.6211 47.4052 81.7755 47.7712 82.0236 48.3945C82.5533 49.7272 83.5142 52.2354 84.3208 54.8464Z" fill="black"/>
    <path d="M84.773 54.8464H78.9832C78.1252 51.715 77.2793 48.3113 77.2793 48.3113L79.4826 46.6926L82.0733 47.4051C82.0733 47.4051 83.5896 51.0131 84.773 54.8464Z" fill="#575A89"/>
    <path d="M125.346 27.163H100.982V28.827H125.346V27.163Z" fill="#FC5185"/>
    <path d="M69.0519 58.9308H60.4263V60.5948H69.0519V58.9308Z" fill="#FC5185"/>
    <path d="M85.0926 61.9563H60.4263V63.6203H85.0926V61.9563Z" fill="#FC5185"/>
    <path d="M130.339 33.214H95.2314V34.878H130.339V33.214Z" fill="#F2F2F2"/>
    <path d="M130.339 37.9036H95.2314V39.5676H130.339V37.9036Z" fill="#F2F2F2"/>
    <path d="M130.339 42.593H95.2314V44.2571H130.339V42.593Z" fill="#F2F2F2"/>
    <path d="M130.339 47.2826H95.2314V48.9466H130.339V47.2826Z" fill="#F2F2F2"/>
    <path d="M130.339 51.9722H95.2314V53.6362H130.339V51.9722Z" fill="#F2F2F2"/>
    <path d="M130.339 56.6617H95.2314V58.3258H130.339V56.6617Z" fill="#F2F2F2"/>
    <path d="M130.339 61.3512H95.2314V63.0152H130.339V61.3512Z" fill="#F2F2F2"/>
    <path d="M137.106 61.5761L127.509 71.1699L123.476 67.1376C123.348 67.0096 123.196 66.908 123.028 66.8388C122.861 66.7695 122.682 66.7338 122.501 66.7338C122.319 66.7338 122.14 66.7695 121.973 66.8387C121.806 66.908 121.654 67.0096 121.526 67.1376L121.381 66.9209C120.842 67.4592 120.987 68.5486 121.526 69.0869L126.759 74.3188C126.956 74.516 127.224 74.6268 127.503 74.6269C127.782 74.6269 128.049 74.5163 128.247 74.3192L139.055 63.5255C139.594 62.9874 139.79 62.0006 139.251 61.4623C138.713 60.9241 137.645 61.0379 137.106 61.5761Z" fill="#57B894"/>
    <path opacity="0.1" d="M137.106 61.5761L127.509 71.1699L123.476 67.1376C123.348 67.0096 123.196 66.908 123.028 66.8388C122.861 66.7695 122.682 66.7338 122.501 66.7338C122.319 66.7338 122.14 66.7695 121.973 66.8387C121.806 66.908 121.654 67.0096 121.526 67.1376L121.381 66.9209C120.842 67.4592 120.987 68.5486 121.526 69.0869L126.759 74.3188C126.956 74.516 127.224 74.6268 127.503 74.6269C127.782 74.6269 128.049 74.5163 128.247 74.3192L139.055 63.5255C139.594 62.9874 139.79 62.0006 139.251 61.4623C138.713 60.9241 137.645 61.0379 137.106 61.5761Z" fill="black"/>
    <path d="M137.106 61.1507L127.509 70.7445L123.475 66.7122C123.347 66.5842 123.195 66.4826 123.028 66.4134C122.861 66.3441 122.682 66.3085 122.5 66.3085C122.319 66.3085 122.14 66.3441 121.973 66.4134C121.805 66.4826 121.653 66.5842 121.525 66.7122C121.397 66.8402 121.296 66.9921 121.227 67.1594C121.157 67.3266 121.122 67.5058 121.122 67.6869C121.122 67.8679 121.157 68.0471 121.227 68.2144C121.296 68.3816 121.397 68.5335 121.525 68.6615L126.759 73.8934C126.956 74.0906 127.224 74.2014 127.503 74.2015C127.782 74.2016 128.049 74.0909 128.247 73.8938L139.055 63.1001C139.183 62.9721 139.285 62.8202 139.354 62.653C139.424 62.4858 139.46 62.3065 139.46 62.1255C139.46 61.9445 139.424 61.7652 139.355 61.5979C139.285 61.4307 139.184 61.2787 139.056 61.1507C138.797 60.8923 138.447 60.7471 138.081 60.7471C137.715 60.7471 137.365 60.8923 137.106 61.1507Z" fill="#57B894"/>
    <path opacity="0.1" d="M207.713 116.719C207.713 127.536 192.629 124.19 174.161 124.19C155.693 124.19 140.834 127.536 140.834 116.719C140.834 105.901 155.915 103.548 174.383 103.548C192.851 103.548 207.713 105.901 207.713 116.719Z" fill="black"/>
    <path d="M207.713 114.698C207.713 125.515 192.629 122.169 174.161 122.169C155.693 122.169 140.834 125.515 140.834 114.698C140.834 103.88 155.915 101.528 174.383 101.528C192.851 101.528 207.713 103.88 207.713 114.698Z" fill="#3F3D56"/>
    <path d="M144.66 80.8091L143.977 81.6024C143.977 81.6024 135.666 82.3824 136.004 83.731C136.341 85.0796 146.009 81.9329 146.009 81.9329L144.66 80.8091Z" fill="#FFC1C7"/>
    <path d="M159.725 80.1348C159.725 80.1348 150.843 83.2815 146.009 81.9329L148.258 86.4282C148.258 86.4282 159.725 86.091 161.748 84.0681C163.772 82.0453 159.725 80.1348 159.725 80.1348Z" fill="#FC5185"/>
    <path opacity="0.1" d="M159.725 80.1348C159.725 80.1348 150.843 83.2815 146.009 81.9329L148.258 86.4282C148.258 86.4282 159.725 86.091 161.748 84.0681C163.772 82.0453 159.725 80.1348 159.725 80.1348Z" fill="black"/>
    <path d="M153.71 56.0288C157 56.0288 159.668 53.3621 159.668 50.0726C159.668 46.783 157 44.1163 153.71 44.1163C150.419 44.1163 147.751 46.783 147.751 50.0726C147.751 53.3621 150.419 56.0288 153.71 56.0288Z" fill="#FFC1C7"/>
    <path d="M158.791 55.6644C158.996 56.0558 159.256 56.416 159.563 56.734C160.379 57.6216 161.353 58.3501 162.435 58.8824C159.053 59.5695 155.637 60.0772 152.202 60.4035C152.564 59.1267 152.087 57.7609 151.445 56.5988C150.804 55.4367 149.986 54.3536 149.584 53.0884L153.611 53.1966C154.342 53.2162 155.075 53.2381 155.806 53.2023C156.352 53.1756 157.261 52.8486 157.771 52.969C158.848 53.2237 158.32 54.709 158.791 55.6644Z" fill="#FFC1C7"/>
    <path d="M172.315 83.6186L175.688 87.6643C175.688 87.6643 181.309 100.813 169.055 102.162C156.802 103.51 147.695 101.15 147.695 101.15C147.695 101.15 142.749 98.7901 142.637 100.588C142.524 102.386 142.074 107.444 139.376 112.388L137.016 117.783C137.016 117.783 135.779 119.019 136.116 120.705C136.453 122.39 128.584 122.952 128.697 120.705C128.697 120.705 129.821 118.794 129.821 117.67C129.821 116.546 131.619 113.849 131.619 113.849L134.88 97.6663C134.88 97.6663 134.655 89.3501 142.299 90.9234C149.944 92.4968 160.849 90.5863 160.849 90.5863L163.322 81.9329L172.315 83.6186Z" fill="#2F2E41"/>
    <path opacity="0.1" d="M172.315 83.6186L175.688 87.6643C175.688 87.6643 181.309 100.813 169.055 102.162C156.802 103.51 147.695 101.15 147.695 101.15C147.695 101.15 142.749 98.7901 142.637 100.588C142.524 102.386 142.074 107.444 139.376 112.388L137.016 117.783C137.016 117.783 135.779 119.019 136.116 120.705C136.453 122.39 128.584 122.952 128.697 120.705C128.697 120.705 129.821 118.794 129.821 117.67C129.821 116.546 131.619 113.849 131.619 113.849L134.88 97.6663C134.88 97.6663 134.655 89.3501 142.299 90.9234C149.944 92.4968 160.849 90.5863 160.849 90.5863L163.322 81.9329L172.315 83.6186Z" fill="black"/>
    <path d="M159.668 83.3226C159.668 83.3226 169.954 79.4604 175.688 87.6643C175.688 87.6643 177.149 100.363 171.303 100.925C165.458 101.487 157.813 101.375 156.014 99.4644C154.216 97.5539 142.861 92.1596 142.861 92.1596C142.861 92.1596 137.209 89.2776 136.1 93.0224C134.992 96.7673 134.879 97.6663 134.879 97.6663C134.879 97.6663 129.034 101.937 126.673 102.724C126.673 102.724 125.099 104.971 124.199 104.971C123.3 104.971 117.792 106.207 118.354 102.049L127.46 93.7329L136.566 84.8548C136.566 84.8548 139.151 81.0338 145.784 83.0567C150.186 84.3663 154.651 85.454 159.162 86.3157L159.668 83.3226Z" fill="#2F2E41"/>
    <path d="M135.779 120.48C135.779 120.48 137.915 125.874 136.116 126.548C134.317 127.223 130.495 126.773 130.495 126.773C130.495 126.773 125.998 126.211 124.874 126.324C123.75 126.436 119.141 125.537 119.815 123.739C120.49 121.941 123.975 122.39 123.975 122.39L127.122 120.929C127.122 120.929 127.46 119.806 128.247 120.255C129.034 120.705 131.282 122.39 135.779 120.48Z" fill="#CBCEDA"/>
    <path d="M124.087 104.522C124.087 104.522 126.448 109.804 122.626 109.354C118.803 108.905 115.88 108.118 114.756 108.005C113.675 107.897 110.617 106.853 111.086 104.774C111.111 104.639 111.122 104.502 111.117 104.365C111.117 104.086 111.496 103.538 114.531 103.623C114.531 103.623 116.78 103.623 117.679 102.049C117.679 102.049 121.052 106.32 124.087 104.522Z" fill="#CBCEDA"/>
    <path d="M149.606 59.5688C149.606 59.5688 157.701 54.5116 164.446 59.5688C171.191 64.626 175.688 87.6643 175.688 87.6643L160.061 84.1805C160.061 84.1805 159.387 81.4833 158.488 81.0338C157.588 80.5842 157.476 78.6737 157.476 78.6737C157.476 78.6737 152.642 77.2128 152.979 71.5937C153.316 65.9746 149.606 59.5688 149.606 59.5688Z" fill="#FC5185"/>
    <path d="M153.766 59.7936H149.607C149.607 59.7936 147.134 62.6031 146.796 69.6832L145.447 75.3023C145.447 75.3023 142.637 82.0452 144.323 83.169C146.009 84.2928 149.269 84.1805 149.944 81.9328C150.619 79.6852 155.228 66.6489 155.228 66.6489L153.766 59.7936Z" fill="#FC5185"/>
    <path d="M152.574 42.3211C153.605 41.8983 154.734 41.7699 155.834 41.9502C156.934 42.1305 157.962 42.6123 158.804 43.3422C160.963 45.2683 161.399 48.4104 161.945 51.2513C162.49 54.0921 163.588 57.2557 166.267 58.3509C165.06 58.5121 163.834 58.4765 162.638 58.2454L166.686 61.8713L159.868 59.6497C157.728 58.9524 155.48 58.2464 153.264 58.6402C149.593 59.2926 147.038 62.7424 143.512 63.9543L143.904 62.0431L141.538 62.0249C142.105 61.6058 142.568 61.0629 142.893 60.4376C142.782 60.3022 142.644 60.1905 142.489 60.1092C142.334 60.028 142.163 59.9786 141.989 59.9643C141.002 53.8156 144.655 47.7376 149.415 43.7206C150.351 42.9304 151.387 42.1715 152.596 41.9739C153.805 41.7762 155.217 42.3167 155.637 43.4672" fill="#FFEA9E"/>
    <path d="M49.4199 98.6714C49.4199 111.607 57.5378 122.074 67.5699 122.074L49.4199 98.6714Z" fill="#3F3D56"/>
    <path d="M67.5698 122.074C67.5698 108.993 76.6289 98.4084 87.8242 98.4084L67.5698 122.074Z" fill="#FC5185"/>
    <path d="M55.9961 99.8441C55.9961 112.132 61.1727 122.074 67.57 122.074L55.9961 99.8441Z" fill="#FC5185"/>
    <path d="M67.5698 122.074C67.5698 105.36 78.0407 91.8346 90.9807 91.8346L67.5698 122.074Z" fill="#3F3D56"/>
    <path d="M63.752 122.239C63.752 122.239 66.3259 122.16 67.1017 121.608C67.8774 121.056 71.0611 120.396 71.2535 121.282C71.4459 122.168 75.1217 125.687 72.2157 125.71C69.3097 125.733 65.4635 125.258 64.6892 124.786C63.915 124.315 63.752 122.239 63.752 122.239Z" fill="#A8A8A8"/>
    <path opacity="0.2" d="M72.2676 125.402C69.3616 125.425 65.5153 124.949 64.7411 124.478C64.1515 124.119 63.9165 122.83 63.8379 122.236C63.7834 122.238 63.752 122.239 63.752 122.239C63.752 122.239 63.915 124.315 64.6892 124.786C65.4635 125.258 69.3097 125.734 72.2157 125.71C73.0546 125.703 73.3443 125.405 73.3284 124.963C73.2119 125.23 72.8919 125.397 72.2676 125.402Z" fill="black"/>
  </g>
  <defs>
    <clipPath id="clip0_37_337">
      <rect width="216" height="131" fill="white"/>
    </clipPath>
  </defs>
</svg>