<svg width="18" height="18" viewBox="0 0 18 18" fill="none" xmlns="http://www.w3.org/2000/svg">
<g id="add-friend 1" clip-path="url(#clip0_37_721)">
<path id="Vector" d="M14.0485 9.35156C12.6751 9.35156 11.4647 10.0622 10.7654 11.1352C10.1956 9.75394 9.08983 8.64816 7.70857 8.07852C8.78139 7.3791 9.49221 6.16868 9.49221 4.79525C9.49221 2.63575 7.73535 0.878891 5.57585 0.878891C3.41634 0.878891 1.65935 2.63575 1.65935 4.79525C1.65935 6.16868 2.37017 7.3791 3.44312 8.07852C1.40392 8.91953 -0.0351562 10.9287 -0.0351562 13.2679V15.2449C-0.0351562 16.3143 0.834825 17.1843 1.90421 17.1843H9.24721C10.1106 17.1843 10.8435 16.6174 11.0943 15.8363C11.8128 16.6617 12.8706 17.1843 14.0484 17.1843C16.208 17.1843 17.9649 15.4274 17.9649 13.2679C17.9649 11.1084 16.208 9.35156 14.0485 9.35156ZM2.71404 4.79525C2.71404 3.21734 3.9978 1.93358 5.57571 1.93358C7.15376 1.93358 8.43752 3.21734 8.43752 4.79525C8.43752 6.3733 7.15376 7.65692 5.57571 7.65692C3.9978 7.65692 2.71404 6.37316 2.71404 4.79525ZM10.132 15.2449C10.132 15.7327 9.73514 16.1296 9.24721 16.1296H1.90421C1.41642 16.1296 1.01953 15.7327 1.01953 15.2449V13.2679C1.01953 10.7556 3.06341 8.71161 5.57585 8.71161C8.08815 8.71161 10.1322 10.7556 10.1322 13.2679V15.2449H10.132ZM14.0485 16.1296C12.4706 16.1296 11.1869 14.8458 11.1869 13.2679C11.1869 11.69 12.4706 10.4063 14.0485 10.4063C15.6264 10.4063 16.9102 11.69 16.9102 13.2679C16.9102 14.8458 15.6264 16.1296 14.0485 16.1296Z" fill="white"/>
<path id="Vector_2" d="M15.1783 12.7406H14.576V12.1382C14.576 11.847 14.3398 11.6109 14.0486 11.6109C13.7573 11.6109 13.5213 11.847 13.5213 12.1382V12.7406H12.9189C12.6277 12.7406 12.3916 12.9766 12.3916 13.2679C12.3916 13.5592 12.6277 13.7953 12.9189 13.7953H13.5213V14.3976C13.5213 14.6889 13.7573 14.9249 14.0486 14.9249C14.3398 14.9249 14.576 14.6889 14.576 14.3976V13.7953H15.1783C15.4696 13.7953 15.7056 13.5592 15.7056 13.2679C15.7056 12.9766 15.4696 12.7406 15.1783 12.7406Z" fill="white"/>
</g>
<defs>
<clipPath id="clip0_37_721">
<rect width="18" height="18" fill="white"/>
</clipPath>
</defs>
</svg>
