<svg width="20" height="20" viewBox="0 0 20 20" fill="none" xmlns="http://www.w3.org/2000/svg">
<g id="friend 1" clip-path="url(#clip0_32_2)">
<path id="Vector" d="M16.1353 8.93707C17.3274 8.15994 18.1172 6.81519 18.1172 5.289C18.1172 2.88956 16.1652 0.9375 13.7657 0.9375C12.1596 0.9375 10.7539 1.81229 10 3.11035C9.24606 1.81229 7.84058 0.9375 6.23444 0.9375C3.83499 0.9375 1.88278 2.88956 1.88278 5.289C1.88278 6.81519 2.67258 8.15994 3.86475 8.93707C1.59897 9.87167 0 12.104 0 14.7032V16.8997C0 18.0881 0.966797 19.0547 2.155 19.0547H17.845C19.0334 19.0547 20 18.0881 20 16.8999V14.7032C20 12.104 18.401 9.87167 16.1353 8.93707ZM13.7657 2.10938C15.519 2.10938 16.9453 3.53577 16.9453 5.289C16.9453 7.04239 15.519 8.46878 13.7657 8.46878C12.0123 8.46878 10.5859 7.04239 10.5859 5.289C10.5859 3.53577 12.0123 2.10938 13.7657 2.10938ZM9.99786 9.73633C9.57245 9.41315 9.10461 9.14352 8.60413 8.93707C9.17648 8.564 9.65607 8.06 10 7.46796C10.3438 8.05969 10.8231 8.56339 11.395 8.93646C10.8992 9.14032 10.4295 9.40857 9.99786 9.73633ZM3.05466 5.289C3.05466 3.53577 4.48105 2.10938 6.23444 2.10938C7.98767 2.10938 9.41406 3.53577 9.41406 5.289C9.41406 7.04239 7.98767 8.46878 6.23444 8.46878C4.48105 8.46878 3.05466 7.04239 3.05466 5.289ZM9.68613 17.8828H2.155C1.61285 17.8828 1.17188 17.4419 1.17188 16.8999V14.7032C1.17188 11.9116 3.44299 9.64066 6.23444 9.64066C9.02588 9.64066 11.297 11.9118 11.297 14.7032V16.8999C11.297 17.4419 10.8559 17.8828 10.3139 17.8828H9.68613ZM18.8281 16.8999C18.8281 17.4419 18.3871 17.8828 17.845 17.8828H12.2305C12.3825 17.5879 12.4689 17.2539 12.4689 16.8999V14.7032C12.4689 13.1075 11.8658 11.6499 10.8763 10.5461C11.7201 9.95895 12.7258 9.64066 13.7657 9.64066C16.5572 9.64066 18.8281 11.9116 18.8281 14.7032V16.8999Z" fill="#929FAD"/>
</g>
<defs>
<clipPath id="clip0_32_2">
<rect width="20" height="20" fill="white"/>
</clipPath>
</defs>
</svg>
