<svg xmlns="http://www.w3.org/2000/svg" width="216" height="151" viewBox="0 0 216 151" fill="none">
  <g clip-path="url(#clip0_37_265)">
    <path opacity="0.1" d="M126.182 23.7487C112.439 23.269 99.3501 18.8156 86.8496 13.9422C74.349 9.06884 61.9717 3.6689 48.5581 1.09791C39.9306 -0.562791 30.0653 -0.797293 23.1132 3.84584C16.4245 8.3227 14.2628 16.0293 13.0992 23.1859C12.2265 28.573 11.7105 34.2394 14.1078 39.2812C15.7704 42.7817 18.7241 45.7236 20.7668 49.077C27.8718 60.7424 22.8499 75.128 15.1483 86.5184C11.5385 91.8608 7.34686 96.9644 4.55882 102.648C1.77078 108.331 0.481868 114.853 2.91955 120.656C5.33811 126.411 11.0989 130.726 17.3375 133.764C30.0122 139.934 44.9419 141.701 59.5128 142.701C91.7504 144.916 124.162 143.956 156.485 142.997C168.448 142.641 180.462 142.281 192.23 140.424C198.766 139.392 205.514 137.755 210.258 133.815C216.28 128.799 217.773 120.304 213.738 114.015C206.969 103.464 188.257 100.842 183.52 89.52C180.915 83.2887 183.59 76.3453 187.374 70.5659C195.494 58.165 209.103 47.2884 209.821 33.1138C210.313 23.3798 203.771 13.631 193.655 9.02407C183.051 4.19546 168.348 4.80304 160.53 12.7953C152.469 21.005 138.315 24.1708 126.182 23.7487Z" fill="#FC5185"/>
    <g opacity="0.1">
      <path opacity="0.1" d="M18.3356 70.0009C18.3356 70.0009 2.46517 63.2985 0.377852 75.3838C0.377852 75.3838 -0.707212 77.2684 0.802535 78.8246C0.802535 78.8246 1.12742 77.9889 2.66052 78.8523C3.2081 79.1564 3.78976 79.3939 4.39323 79.5601C5.20822 79.7858 6.0742 79.7394 6.86063 79.4279C6.86063 79.4279 12.0821 79.1444 16.4733 72.2863C16.4733 72.2863 18.3568 71.118 18.4502 70.6789L15.3033 70.8921C15.3033 70.8921 15.5454 73.2051 14.2416 74.5929C14.2416 74.5929 15.3968 71.0029 14.8425 70.9027C14.73 70.8814 13.1799 71.086 13.1799 71.086C13.1799 71.086 13.5812 75.1088 11.4812 77.1895C11.4812 77.1895 13.4305 73.0985 12.5832 71.1585L10.2602 71.6083C10.2602 71.6083 10.8972 75.84 8.59971 78.3002C8.59971 78.3002 10.4895 73.9512 9.7591 71.7426L7.53588 72.4931C7.53588 72.4931 8.07098 76.6309 6.14929 78.6754C6.14929 78.6754 7.82679 73.4289 7.03688 72.7062C7.03688 72.7062 5.03662 73.5206 4.60982 73.9853C4.60982 73.9853 4.9262 76.9699 3.70524 78.0465C3.70524 78.0465 4.45481 74.4224 4.08321 74.2731C4.08321 74.2731 1.76019 76.0298 1.05097 77.5455C1.05097 77.5455 1.93431 75.2303 3.7923 73.9214C3.7923 73.9214 2.23159 73.657 1.03186 74.3115C1.03186 74.3115 1.83451 72.7745 4.35501 73.5035C4.35501 73.5035 6.22149 72.2053 6.59521 72.2244C6.59521 72.2244 4.21061 71.1585 2.48853 71.2907C2.48853 71.2907 4.3359 70.2248 7.17702 72.0049L9.39599 71.2012C9.39599 71.2012 6.31704 69.6172 4.77544 69.6236C4.77544 69.6236 6.82666 68.8263 9.97144 71.0434L12.2435 70.5787C12.2435 70.5787 9.69539 69.0118 7.97755 68.6472C7.97755 68.6472 10.0373 68.3189 12.8996 70.4699L14.4518 70.3399C14.4518 70.3399 12.5726 69.2271 12.0035 68.9563C11.4345 68.6856 11.4599 68.5108 11.4599 68.5108C12.8137 68.7472 14.0753 69.3568 15.1037 70.2717C15.1037 70.2717 18.3228 70.1992 18.3356 70.0009Z" fill="#FC5185"/>
    </g>
    <g opacity="0.1">
      <path opacity="0.1" d="M17.754 57.9859C17.754 57.9859 12.1248 44.9241 4.03035 50.9146C4.03035 50.9146 2.31887 51.4134 2.33161 53.1957C2.33161 53.1957 2.99837 52.8844 3.42092 54.2765C3.57587 54.7703 3.78976 55.2435 4.05795 55.6856C4.4124 56.2867 4.9531 56.7546 5.59742 57.018C5.59742 57.018 8.86111 59.8363 15.3651 58.2737C15.3651 58.2737 17.1488 58.6553 17.4524 58.4506L15.4649 56.7729C15.4649 56.7729 14.2949 58.2865 12.7278 58.359C12.7278 58.359 15.4522 56.888 15.1804 56.5107C15.1252 56.4339 14.0868 55.6707 14.0868 55.6707C14.0868 55.6707 12.0441 58.2886 9.62766 58.3291C9.62766 58.3291 13.1079 57.0116 13.7046 55.3765L12.0696 54.3106C12.0696 54.3106 10.0439 57.1865 7.28554 57.3357C7.28554 57.3357 10.8762 55.8327 11.6959 54.1017L9.9483 53.2767C9.9483 53.2767 7.91832 56.0481 5.62291 56.1525C5.62291 56.1525 9.59794 53.9951 9.53636 53.1147C9.53636 53.1147 7.88646 52.4538 7.36198 52.4922C7.36198 52.4922 5.86073 54.4428 4.52085 54.3874C4.52085 54.3874 7.02436 52.6627 6.88846 52.3621C6.88846 52.3621 4.51024 52.0764 3.22982 52.5753C3.22982 52.5753 5.06869 51.7055 6.91394 51.9912C6.91394 51.9912 6.13677 50.9402 5.05595 50.6481C5.05595 50.6481 6.40645 50.194 7.48939 52.0658C7.48939 52.0658 9.33251 52.3642 9.5491 52.586C9.5491 52.586 8.74008 50.5842 7.63803 49.6824C7.63803 49.6824 9.33676 50.1088 10.0162 52.7885L11.7914 53.5794C11.7914 53.5794 10.8614 50.8762 9.93981 50C9.93981 50 11.6109 50.6993 12.2225 53.816L13.8363 54.8372C13.8363 54.8372 13.212 52.4495 12.3987 51.2493C12.3987 51.2493 13.8087 52.2342 14.2864 55.1484L15.2844 55.9585C15.2844 55.9585 14.7982 54.2232 14.6134 53.7372C14.4287 53.2511 14.5434 53.1616 14.5434 53.1616C15.2141 54.0757 15.6178 55.1594 15.7091 56.2911C15.7091 56.2911 17.6287 58.0946 17.754 57.9859Z" fill="#FC5185"/>
    </g>
    <path d="M198.172 142.225C197.96 141.454 197.747 140.671 197.323 140C196.929 139.43 196.46 138.916 195.93 138.471C194.39 137.066 192.498 135.64 190.458 135.996C189.825 136.135 189.213 136.359 188.64 136.661C188.343 136.8 188.043 136.938 187.738 137.056C186.876 137.417 185.924 137.5 185.013 137.294C184.546 137.169 184.111 136.943 183.65 136.802C183.43 136.736 183.206 136.688 182.979 136.657C183.424 136.455 183.856 136.226 184.274 135.973C186.565 134.551 188.394 131.993 188.137 129.285C188.052 128.368 187.738 127.492 187.428 126.629C187.156 125.874 186.883 125.119 186.61 124.363C186.258 123.38 185.894 122.38 185.249 121.564C184.531 120.655 183.512 120.039 182.459 119.579C180.195 118.592 177.721 118.244 175.279 117.908L175.11 117.884V91.3982C175.111 91.1733 175.068 90.9504 174.983 90.7422C174.899 90.5341 174.774 90.3448 174.616 90.1853C174.458 90.0258 174.27 89.8993 174.063 89.8129C173.857 89.7265 173.635 89.682 173.411 89.6821H170.198C170.057 88.8123 169.915 87.9432 169.773 87.0748C169.368 84.5998 168.95 82.0757 167.814 79.8458C167.07 78.3855 165.886 76.9955 164.291 76.7077C163.977 76.6783 163.668 76.6066 163.374 76.4945C162.906 76.2643 162.652 75.7526 162.291 75.3732C161.365 74.3989 159.859 74.384 158.617 73.8809C157.521 73.4439 156.625 72.6188 155.627 71.9857C154.629 71.3525 153.387 70.9006 152.281 71.3142C152.281 71.3952 152.266 71.4741 152.257 71.5551L151.548 71.2353C150.784 70.8814 150.002 70.5147 149.389 69.9306C148.599 69.1823 148.178 68.1953 147.851 67.1422C147.817 67.0313 147.786 66.929 147.754 66.8117C149.111 65.4196 150.029 63.6572 150.395 61.7444C150.453 61.9298 150.512 62.1174 150.569 62.305C150.622 62.4957 150.693 62.6807 150.782 62.8572C150.811 62.9155 150.845 62.9718 150.881 63.0256C150.952 63.1302 151.039 63.2219 151.141 63.2963C151.241 63.3698 151.359 63.4161 151.482 63.4306C151.542 63.439 151.602 63.439 151.661 63.4306C151.821 63.3966 151.97 63.3228 152.095 63.2159C152.22 63.109 152.316 62.9725 152.374 62.8188C152.408 62.735 152.433 62.6478 152.449 62.5587C152.457 62.5051 152.462 62.451 152.463 62.3967C152.463 62.3796 152.463 62.3626 152.463 62.3455C152.463 62.3285 152.463 62.2709 152.463 62.2347C152.463 62.1984 152.463 62.1942 152.463 62.175C152.463 62.1558 152.463 62.1025 152.463 62.0684V62.013C152.463 61.9703 152.451 61.9277 152.442 61.8872C152.434 61.8467 152.442 61.8637 152.442 61.8531C152.432 61.7977 152.419 61.7444 152.408 61.6889C152.407 61.6769 152.407 61.6647 152.408 61.6527L152.376 61.5184L152.357 61.4374V61.4161C152.336 61.3329 152.317 61.2476 152.298 61.1624C152.143 60.4218 152.104 59.6617 152.181 58.909C152.309 57.8049 152.512 56.7109 152.788 55.6345L152.833 55.4405L152.884 55.2146C152.918 55.0611 152.95 54.9076 152.982 54.7541C153.009 54.624 153.035 54.4919 153.058 54.3597C153.081 54.2275 153.098 54.1273 153.115 54.0101C153.115 53.9951 153.115 53.9824 153.115 53.9674C153.245 53.1729 153.28 52.3656 153.219 51.5627C153.12 50.4478 152.776 49.3925 152.02 48.5504C151.487 47.9557 150.786 47.5165 150.291 46.8919C149.826 46.3056 149.565 45.5851 149.085 45.0116C147.758 43.4212 144.354 42.1954 142.265 41.9823C139.872 41.7392 136.005 42.3532 134.077 43.773C133.363 44.2974 132.875 45.0521 132.378 45.7705C131.465 47.1051 130.427 48.4353 128.964 49.1815C128.409 49.4629 127.777 49.676 127.409 50.1664C127.187 50.4988 127.042 50.8768 126.985 51.2728C126.702 52.6622 126.556 54.0759 126.547 55.4938C126.515 56.114 126.595 56.735 126.781 57.3272C126.81 57.4082 126.847 57.4913 126.885 57.5702C126.919 57.6406 126.957 57.7109 126.997 57.7834L127.023 57.8282C127.279 58.1975 127.507 58.5859 127.704 58.99C127.751 59.1039 127.785 59.2226 127.806 59.3439C127.843 59.6569 127.823 59.974 127.747 60.2798C127.747 60.3267 127.73 60.3715 127.719 60.4162L127.7 60.5143C127.7 60.5441 127.7 60.5761 127.683 60.606C127.666 60.6983 127.651 60.79 127.639 60.881C127.639 60.9449 127.626 61.011 127.624 61.0771C127.609 61.3411 127.659 61.6048 127.77 61.8446C127.798 61.9017 127.832 61.956 127.87 62.0066C127.946 62.1088 128.044 62.1926 128.157 62.2517C128.41 62.3472 128.674 62.4102 128.942 62.4393C129.737 62.6184 130.233 63.2281 130.556 63.9764C130.628 64.1443 130.691 64.3158 130.745 64.4902C130.878 64.9276 130.977 65.3744 131.042 65.8268C131.403 65.8076 131.614 65.4879 131.741 65.1382C131.781 65.023 131.814 64.9055 131.841 64.7865C131.89 64.5626 131.939 64.3388 131.989 64.115C132.828 65.9004 134.178 67.394 135.867 68.4042C135.926 68.579 135.984 68.756 136.037 68.935C136.315 69.9008 136.449 70.9134 135.967 71.7576C135.623 72.3566 135.043 72.7276 134.397 72.9834C134.305 72.8581 134.185 72.7554 134.047 72.6828C133.486 72.4014 132.815 72.7446 132.348 73.1646C131.499 73.9363 130.807 75.0427 129.688 75.2964C129.284 75.3902 128.838 75.371 128.501 75.6183C128.278 75.8283 128.093 76.0739 127.951 76.3453C127.708 76.6949 127.382 76.9777 127.002 77.1676C126.622 77.3576 126.2 77.4487 125.776 77.4325C125.388 77.4133 124.927 77.3238 124.662 77.6095C124.464 77.8227 124.449 78.1616 124.237 78.3641C123.95 78.6455 123.485 78.507 123.086 78.4899C122.798 78.4907 122.512 78.5504 122.248 78.6655C121.983 78.7806 121.744 78.9486 121.547 79.1593C121.521 78.2992 121.193 77.4758 120.621 76.8356C120.047 76.243 119.251 75.9381 118.572 75.4734C116.873 74.3137 116.024 72.2756 115.138 70.4081C114.253 68.5406 113.085 66.5708 111.152 65.8908C110.709 65.733 110.091 65.7202 109.891 66.153C109.823 66.3336 109.812 66.5308 109.859 66.7179C110.046 67.7114 110.751 68.5087 111.361 69.3081C112.386 70.6554 113.246 72.3033 112.998 73.9875C112.707 75.9808 110.938 77.5285 110.726 79.5303C110.632 80.4128 110.855 81.2997 110.853 82.1865C110.853 82.7408 110.766 83.3015 110.885 83.8408C111.011 84.2506 111.161 84.6527 111.333 85.0453C111.524 85.6895 111.623 86.3578 111.626 87.03C111.776 89.8554 111.925 92.6815 112.074 95.5084C112.187 97.6167 111.728 99.6974 111.265 101.772C110.691 103.001 110.246 104.287 109.936 105.609C109.413 107.918 109.398 110.378 110.148 112.625C110.549 113.846 111.165 114.991 111.494 116.234C111.494 116.262 111.507 116.287 111.513 116.313C111.545 116.577 111.581 116.842 111.63 117.104C111.691 117.407 111.769 117.706 111.866 117.999C111.962 118.505 112.119 118.996 112.333 119.464C112.631 120.058 113.068 120.57 113.607 120.956C113.301 121.557 112.807 122.041 112.477 122.63C111.904 123.649 111.881 124.9 112.089 126.055C112.49 128.285 113.69 130.279 115.274 131.899C115.203 131.895 115.132 131.895 115.062 131.899C114.543 131.956 114.046 132.135 113.609 132.421C110.256 134.389 108.339 138.603 109.04 142.462C109.178 143.217 109.418 143.98 109.919 144.553C110.336 145.01 110.872 145.34 111.467 145.506C111.838 145.618 112.22 145.69 112.607 145.719C115.221 145.933 117.752 144.715 120.372 144.613C121.241 144.599 122.11 144.64 122.973 144.735C124.235 144.84 125.499 144.907 126.766 144.935C128.823 144.984 129.983 144.434 131.297 142.888C131.62 142.505 131.89 142.079 132.098 141.622C133.215 141.558 134.448 141.46 135.342 141.385L135.355 141.511C135.404 141.938 135.478 142.428 135.818 142.699C136.01 142.829 136.227 142.918 136.455 142.959C138.602 143.49 140.774 144.025 142.982 144.025C144.019 144.003 145.055 143.923 146.083 143.784L149.968 143.334C151.099 143.48 152.215 143.724 153.304 144.063C154.425 144.447 155.474 145.016 156.57 145.464C159.118 146.502 161.862 146.873 164.577 147.235C165.04 147.297 165.571 147.34 165.915 147.022C166.357 146.596 166.208 145.881 166.085 145.285C166.034 145.042 165.996 144.794 165.964 144.547C167.797 145.031 169.59 145.656 171.328 146.417L171.634 146.551C171.721 147.016 172.15 147.389 172.559 147.89C172.694 148.1 172.851 148.296 173.029 148.472C173.231 148.605 173.461 148.689 173.702 148.717C176.572 149.253 179.502 149.386 182.408 149.111C183.002 149.03 183.603 149.009 184.202 149.049C184.642 149.109 185.075 149.208 185.497 149.344L187.956 150.049C189.768 150.572 191.626 151.098 193.505 150.981C193.886 150.956 194.266 150.901 194.639 150.817C196.125 150.471 197.512 149.636 198.225 148.293C199.183 146.466 198.718 144.221 198.172 142.225ZM126.048 108.881C125.972 109.806 125.732 110.709 125.339 111.548C125.076 112.083 124.736 112.576 124.49 113.113C124.256 113.599 124.082 114.518 123.978 115.526C123.85 115.505 123.721 115.486 123.593 115.471C123.782 114.806 123.925 114.124 124.114 113.456C124.562 111.87 125.299 110.372 126.048 108.881Z" fill="url(#paint0_linear_37_265)"/>
    <path d="M129.32 141.669C128.872 140.646 128.448 139.469 128.896 138.446C129.188 137.843 129.69 137.369 130.308 137.113C130.918 136.863 131.562 136.704 132.219 136.64C134.279 136.369 136.365 136.34 138.432 136.555C138.583 137.753 138.264 138.968 137.99 140.126C137.742 141.191 137.6 141.349 136.504 141.405C135.795 141.443 129.488 142.046 129.32 141.669Z" fill="#FBBEBE"/>
    <path d="M148.229 134.766C164.999 134.766 178.594 130.948 178.594 126.239C178.594 121.529 164.999 117.711 148.229 117.711C131.459 117.711 117.864 121.529 117.864 126.239C117.864 130.948 131.459 134.766 148.229 134.766Z" fill="#464353"/>
    <path opacity="0.1" d="M148.229 134.766C164.999 134.766 178.594 130.948 178.594 126.239C178.594 121.529 164.999 117.711 148.229 117.711C131.459 117.711 117.864 121.529 117.864 126.239C117.864 130.948 131.459 134.766 148.229 134.766Z" fill="black"/>
    <path d="M153.673 81.2229C152.633 83.2421 150.904 84.8188 148.802 85.6657C147.565 86.1185 146.263 86.3675 144.946 86.4033C143.504 86.4694 142.033 86.3756 140.678 85.881C138.86 85.2201 137.351 83.8685 136.219 82.2931C135.087 80.7177 134.308 78.9184 133.63 77.1042C133.274 76.1598 132.934 75.1536 133.102 74.1559C134.195 73.9065 135.393 73.5398 135.958 72.5655C136.44 71.7299 136.306 70.7279 136.028 69.7728C135.949 69.5021 135.858 69.2335 135.767 68.9755C135.554 68.3573 134.822 67.1827 135.331 66.654C135.656 66.3193 137.017 66.1487 137.487 65.9313C138.933 65.2619 140.266 64.294 141.854 63.9764C143.228 63.7014 144.647 63.9593 146.018 64.245C146.2 64.2716 146.375 64.3346 146.532 64.4305C146.712 64.5821 146.844 64.7817 146.915 65.0061C147.305 65.9611 147.535 67.0164 147.849 68.0119C148.176 69.0544 148.596 70.0329 149.384 70.7727C149.998 71.3504 150.779 71.7128 151.544 72.0646L153.425 72.9301C153.76 73.0559 154.063 73.253 154.315 73.5078C154.561 73.8473 154.708 74.2489 154.739 74.6675C155.076 76.9108 154.704 79.2037 153.673 81.2229Z" fill="#FBBEBE"/>
    <path opacity="0.1" d="M147.841 68.012C146.343 69.576 144.371 70.5972 142.234 70.9159C140.096 71.2345 137.914 70.8325 136.028 69.7729C135.95 69.5021 135.858 69.2335 135.767 68.9755C135.555 68.3573 134.822 67.1827 135.332 66.654C135.657 66.3193 137.018 66.1487 137.487 65.9313C138.933 65.2619 140.266 64.294 141.855 63.9764C143.229 63.7014 144.647 63.9593 146.019 64.245C146.201 64.2716 146.375 64.3346 146.533 64.4305C146.712 64.5821 146.844 64.7817 146.915 65.0061C147.297 65.9611 147.526 67.0164 147.841 68.012Z" fill="black"/>
    <path d="M140.797 70.5979C146.192 70.5979 150.565 66.2074 150.565 60.7914C150.565 55.3755 146.192 50.985 140.797 50.985C135.402 50.985 131.029 55.3755 131.029 60.7914C131.029 66.2074 135.402 70.5979 140.797 70.5979Z" fill="#FBBEBE"/>
    <path d="M170.557 92.6175L169.754 87.7356C169.349 85.2861 168.93 82.7898 167.796 80.5833C167.051 79.1379 165.868 77.7608 164.274 77.4751C163.96 77.447 163.651 77.3752 163.356 77.2619C162.889 77.0359 162.634 76.5286 162.276 76.1534C161.35 75.1898 159.842 75.1748 158.602 74.6845C157.506 74.2582 156.61 73.4374 155.612 72.8106C154.614 72.1839 153.372 71.7447 152.268 72.1455C152.089 74.0535 151.901 76.0041 151.094 77.7416C150.568 78.8727 149.798 79.8716 148.839 80.6653C147.88 81.4591 146.756 82.0275 145.55 82.3292C144.344 82.6308 143.086 82.6579 141.868 82.4086C140.65 82.1593 139.503 81.6398 138.51 80.8882C136.618 79.4577 135.406 77.2513 134.841 74.9425C134.703 74.3797 134.546 73.7337 134.03 73.4758C133.471 73.1944 132.8 73.5355 132.331 73.949C131.471 74.7144 130.787 75.8101 129.67 76.0681C129.267 76.1619 128.821 76.1427 128.486 76.3879C128.263 76.5945 128.076 76.8373 127.934 77.1063C127.689 77.453 127.363 77.7332 126.983 77.9215C126.604 78.1098 126.184 78.2004 125.761 78.185C125.373 78.1658 124.912 78.0763 124.646 78.3598C124.449 78.573 124.434 78.9056 124.222 79.1038C123.935 79.3831 123.47 79.2467 123.071 79.2317C122.315 79.1998 121.612 79.6858 121.179 80.2976C120.746 80.9095 120.542 81.6663 120.33 82.3996C122.65 87.5885 124.774 92.7838 127.095 97.9727C127.204 98.1683 127.261 98.3883 127.263 98.6122C127.216 98.8447 127.117 99.0634 126.974 99.2518C125.836 101.087 125.872 103.396 125.997 105.553C126.122 107.711 126.275 109.99 125.315 111.923C125.054 112.454 124.714 112.94 124.466 113.471C123.884 114.673 123.674 118.519 124.014 119.811H172.003C171.088 117.285 171.436 112.215 171.627 109.534C171.761 107.658 171.415 105.784 171.266 103.908C170.954 100.077 171.187 96.442 170.557 92.6175Z" fill="#F86D70"/>
    <path d="M173.013 118.319C173.721 118.048 174.5 118.146 175.258 118.249C177.698 118.583 180.174 118.927 182.435 119.905C183.497 120.361 184.507 120.971 185.225 121.868C185.862 122.676 186.234 123.666 186.586 124.64L187.402 126.876C187.712 127.729 188.026 128.599 188.113 129.505C188.368 132.189 186.54 134.719 184.24 136.113C181.94 137.508 179.233 138.004 176.596 138.524C173.958 139.045 171.31 139.62 168.684 140.23C167.459 140.549 166.216 140.795 164.961 140.965C162.15 141.285 159.211 140.814 156.54 141.748C155.478 142.121 154.436 142.675 153.334 142.933C152.603 143.094 151.863 143.214 151.119 143.291L146.063 143.871C145.035 144.009 144 144.089 142.963 144.11C140.755 144.11 138.582 143.585 136.438 143.061C136.21 143.021 135.993 142.933 135.801 142.803C135.461 142.534 135.387 142.059 135.338 141.628C135.121 139.723 134.931 137.815 134.769 135.904C134.718 135.284 134.679 134.613 135.017 134.09C135.442 133.451 136.27 133.25 137.026 133.127C140.231 132.6 143.478 132.374 146.726 132.451C147.959 131.212 149.994 131.206 151.609 130.532C152.204 130.258 152.779 129.944 153.332 129.592C156.221 127.9 159.45 126.875 162.783 126.593C163.436 126.573 164.085 126.48 164.717 126.315C165.968 125.925 167.108 124.864 168.393 125.124C168.552 124.682 168.663 124.092 169.03 123.789C169.213 123.634 169.438 123.529 169.605 123.363C169.96 123.003 169.992 122.436 169.939 121.932C169.886 121.429 169.767 120.913 169.896 120.423C169.95 120.237 170.029 120.06 170.132 119.897C170.771 118.775 171.733 118.212 173.013 118.319Z" fill="#464353"/>
    <path opacity="0.05" d="M173.013 118.319C173.721 118.048 174.5 118.146 175.258 118.249C177.698 118.583 180.174 118.927 182.435 119.905C183.497 120.361 184.507 120.971 185.225 121.868C185.862 122.676 186.234 123.666 186.586 124.64L187.402 126.876C187.712 127.729 188.026 128.599 188.113 129.505C188.368 132.189 186.54 134.719 184.24 136.113C181.94 137.508 179.233 138.004 176.596 138.524C173.958 139.045 171.31 139.62 168.684 140.23C167.459 140.549 166.216 140.795 164.961 140.965C162.15 141.285 159.211 140.814 156.54 141.748C155.478 142.121 154.436 142.675 153.334 142.933C152.603 143.094 151.863 143.214 151.119 143.291L146.063 143.871C145.035 144.009 144 144.089 142.963 144.11C140.755 144.11 138.582 143.585 136.438 143.061C136.21 143.021 135.993 142.933 135.801 142.803C135.461 142.534 135.387 142.059 135.338 141.628C135.121 139.723 134.931 137.815 134.769 135.904C134.718 135.284 134.679 134.613 135.017 134.09C135.442 133.451 136.27 133.25 137.026 133.127C140.231 132.6 143.478 132.374 146.726 132.451C147.959 131.212 149.994 131.206 151.609 130.532C152.204 130.258 152.779 129.944 153.332 129.592C156.221 127.9 159.45 126.875 162.783 126.593C163.436 126.573 164.085 126.48 164.717 126.315C165.968 125.925 167.108 124.864 168.393 125.124C168.552 124.682 168.663 124.092 169.03 123.789C169.213 123.634 169.438 123.529 169.605 123.363C169.96 123.003 169.992 122.436 169.939 121.932C169.886 121.429 169.767 120.913 169.896 120.423C169.95 120.237 170.029 120.06 170.132 119.897C170.771 118.775 171.733 118.212 173.013 118.319Z" fill="black"/>
    <path d="M131.274 142.986C129.96 144.515 128.802 145.061 126.745 145.012C125.479 144.982 124.215 144.916 122.952 144.813C122.089 144.72 121.221 144.679 120.353 144.692C117.733 144.794 115.204 145.999 112.59 145.788C112.203 145.757 111.821 145.686 111.45 145.574C110.86 145.41 110.327 145.084 109.91 144.634C109.409 144.065 109.169 143.31 109.031 142.564C108.333 138.74 110.248 134.574 113.601 132.628C114.038 132.344 114.535 132.167 115.053 132.11C115.561 132.108 116.063 132.218 116.523 132.434L116.554 132.447C117.917 133.009 119.154 133.838 120.194 134.885C120.352 135.067 120.54 135.219 120.75 135.335C120.96 135.415 121.182 135.457 121.406 135.459L124.197 135.636C124.669 135.65 125.139 135.715 125.598 135.83C126.104 136.007 126.596 136.221 127.072 136.469C128.573 137.143 130.238 137.322 131.86 137.582C132.016 137.591 132.166 137.651 132.285 137.753C132.349 137.834 132.394 137.928 132.416 138.03C132.643 138.887 132.657 139.787 132.458 140.651C132.259 141.514 131.852 142.316 131.274 142.986Z" fill="#3F3D56"/>
    <path opacity="0.1" d="M116.546 132.447C115.463 133.484 114.524 134.663 113.754 135.951C112.517 138.077 111.74 140.441 111.473 142.888C111.372 143.781 111.364 144.682 111.45 145.577C110.86 145.411 110.327 145.085 109.91 144.634C109.409 144.065 109.169 143.31 109.031 142.564C108.333 138.74 110.248 134.574 113.601 132.628C114.038 132.344 114.535 132.167 115.053 132.11C115.561 132.108 116.063 132.218 116.523 132.434L116.546 132.447Z" fill="black"/>
    <path d="M170.584 137.749C172.145 137.706 173.897 137.627 175.043 138.682C176.137 139.68 176.281 141.326 176.354 142.807L176.436 144.528C176.462 145.052 176.483 145.594 176.273 146.08C175.899 146.932 174.874 147.344 173.937 147.295C173.001 147.246 172.141 146.834 171.285 146.463C168.962 145.459 166.543 144.694 164.065 144.18C164.146 142.991 164.281 141.807 164.469 140.629C164.598 139.812 164.62 138.446 165.163 137.768C165.739 137.051 166.488 137.439 167.27 137.572C168.366 137.74 169.476 137.799 170.584 137.749Z" fill="#FBBEBE"/>
    <path d="M129.343 120.464C129.343 120.677 129.01 120.464 128.98 120.236C128.747 118.511 127.383 117.089 125.795 116.398C124.207 115.708 122.398 115.671 120.678 115.835C118.077 116.083 115.167 117.083 114.206 119.523C113.98 120.095 113.879 120.713 113.603 121.261C113.297 121.862 112.798 122.342 112.466 122.926C111.895 123.936 111.872 125.175 112.078 126.318C112.632 129.366 114.709 131.973 117.225 133.779C119.741 135.585 122.682 136.663 125.615 137.636C133.369 140.203 141.324 142.111 149.397 143.338C150.705 143.536 152.026 143.72 153.278 144.142C154.4 144.519 155.449 145.084 156.544 145.528C159.092 146.555 161.834 146.922 164.55 147.282C165.012 147.342 165.543 147.384 165.885 147.069C166.327 146.657 166.18 145.941 166.055 145.351C165.594 143.107 165.979 140.772 167.136 138.797C167.59 138.03 168.181 137.243 168.096 136.354C167.994 135.318 166.966 134.585 165.943 134.419C164.919 134.252 163.879 134.498 162.851 134.632C162.496 134.679 162.11 134.709 161.789 134.527C161.636 134.424 161.498 134.301 161.377 134.161C160.669 133.475 159.763 133.032 158.789 132.895C157.815 132.759 156.822 132.935 155.954 133.4C155.574 133.613 154.998 133.137 154.604 132.958L150.142 130.927C145.012 128.597 139.856 126.256 134.429 124.781C133.996 124.695 133.584 124.523 133.219 124.275C132.949 124.062 132.756 123.772 132.507 123.536C131.966 123.022 131.212 122.817 130.562 122.453C129.912 122.088 129.19 121.195 129.343 120.464Z" fill="#464353"/>
    <path d="M198.182 148.325C197.469 149.653 196.084 150.48 194.598 150.821C194.225 150.905 193.846 150.96 193.464 150.983C191.585 151.1 189.729 150.578 187.918 150.062L185.459 149.363C185.036 149.229 184.603 149.132 184.164 149.073C183.566 149.033 182.965 149.053 182.371 149.135C179.465 149.406 176.536 149.274 173.665 148.742C173.425 148.716 173.195 148.634 172.992 148.501C172.815 148.327 172.658 148.133 172.523 147.924C171.854 147.116 171.134 146.645 171.926 145.579C172.383 144.96 173.23 144.651 173.585 143.941C173.939 143.232 173.712 142.223 173.502 141.49C173.215 140.477 172.273 140.04 171.935 139.111C171.682 138.409 172.107 137.595 172.746 137.213C173.385 136.832 174.175 136.802 174.912 136.9C175.649 136.998 176.371 137.207 177.112 137.265C179.29 137.439 181.518 136.312 183.609 136.947C184.07 137.088 184.506 137.311 184.973 137.435C185.883 137.64 186.835 137.557 187.697 137.198C188.003 137.083 188.302 136.945 188.599 136.808C189.173 136.509 189.783 136.287 190.415 136.15C192.456 135.798 194.348 137.215 195.887 138.599C196.415 139.039 196.883 139.548 197.278 140.113C197.703 140.778 197.928 141.552 198.127 142.315C198.69 144.291 199.155 146.512 198.182 148.325Z" fill="#3F3D56"/>
    <path opacity="0.1" d="M198.182 148.325C197.469 149.653 196.084 150.48 194.598 150.821C195.176 149.693 195.437 148.428 195.352 147.163C195.224 145.135 194.337 143.225 193.205 141.541C192.509 140.504 191.717 139.536 190.84 138.648C190.164 137.966 189.334 137.425 188.608 136.8C189.181 136.5 189.792 136.279 190.423 136.141C192.464 135.789 194.356 137.207 195.895 138.591C196.424 139.031 196.892 139.54 197.286 140.104C197.711 140.769 197.936 141.543 198.136 142.306C198.69 144.291 199.155 146.513 198.182 148.325Z" fill="black"/>
    <path d="M134.049 44.8751C133.335 45.3931 132.847 46.1371 132.35 46.8513C131.435 48.1709 130.399 49.4884 128.936 50.2239C128.381 50.5031 127.749 50.7142 127.381 51.2002C127.163 51.5289 127.022 51.9027 126.967 52.2939C126.687 53.6691 126.54 55.0685 126.53 56.4723C126.53 57.1715 126.56 57.8921 126.867 58.5273C127.158 59.1243 127.683 59.6295 127.791 60.2797C127.874 60.7871 127.687 61.2923 127.621 61.8018C127.555 62.3114 127.67 62.9147 128.139 63.1577C128.392 63.2532 128.656 63.3155 128.925 63.3432C130.337 63.6587 130.811 65.3215 131.025 66.6965C131.505 66.6688 131.722 66.1167 131.821 65.6669L133.293 59.0987C133.452 58.3866 133.718 57.5616 134.425 57.3122C134.898 57.148 135.416 57.3015 135.911 57.3442C137.854 57.5041 139.497 55.9969 141.398 55.5812C142.006 55.4586 142.628 55.4177 143.247 55.4596C144.747 55.5343 146.49 56.1525 146.808 57.5574C146.861 57.7855 146.893 58.0583 147.106 58.1713C147.318 58.2843 147.53 58.1884 147.764 58.1713C148.715 58.0754 149.276 59.1498 149.55 60.0282L150.548 63.2259C150.696 63.7098 150.947 64.279 151.469 64.3409C151.951 64.4006 152.361 63.9422 152.433 63.4881C152.505 63.034 152.348 62.5629 152.244 62.1067C151.775 60.0068 152.493 57.858 152.93 55.7538C153.368 53.6497 153.446 51.2322 151.979 49.612C151.446 49.0258 150.745 48.5887 150.248 47.9705C149.785 47.3906 149.524 46.6786 149.044 46.1094C147.717 44.5383 144.313 43.3252 142.226 43.1248C139.85 42.8626 135.977 43.4702 134.049 44.8751Z" fill="#3F3D56"/>
    <g opacity="0.1">
      <path opacity="0.1" d="M151.478 62.8465C150.956 62.7825 150.705 62.2069 150.557 61.7315C150.224 60.6642 149.891 59.5983 149.559 58.5338C149.285 57.6533 148.724 56.5789 147.773 56.677C147.56 56.7004 147.31 56.7878 147.115 56.677C146.919 56.5661 146.87 56.2911 146.817 56.063C146.499 54.656 144.755 54.0399 143.256 53.9653C142.637 53.9244 142.015 53.9653 141.407 54.0868C139.496 54.5132 137.863 56.0054 135.92 55.8498C135.419 55.8093 134.901 55.6558 134.434 55.82C133.718 56.0673 133.461 56.8859 133.302 57.6064L131.83 64.1725C131.73 64.6244 131.514 65.1766 131.034 65.2022C130.822 63.8293 130.346 62.1664 128.934 61.8509C128.665 61.8212 128.402 61.7589 128.148 61.6654C127.963 61.5641 127.819 61.4024 127.738 61.2071C127.7 61.4054 127.656 61.6036 127.63 61.8019C127.566 62.3093 127.679 62.9147 128.148 63.1577C128.401 63.2532 128.665 63.3156 128.934 63.3432C130.346 63.6587 130.819 65.3215 131.034 66.6966C131.514 66.6689 131.73 66.1167 131.83 65.6669L133.302 59.0987C133.461 58.3867 133.726 57.5617 134.434 57.3122C134.907 57.1481 135.425 57.3016 135.92 57.3442C137.863 57.5041 139.506 55.9969 141.407 55.5812C142.012 55.4594 142.631 55.4186 143.248 55.4597C144.747 55.5343 146.49 56.1525 146.809 57.5574C146.862 57.7855 146.894 58.0584 147.106 58.1714C147.318 58.2844 147.531 58.1884 147.764 58.1714C148.716 58.0754 149.276 59.1499 149.55 60.0282C149.881 61.0955 150.214 62.1615 150.548 63.2259C150.697 63.7099 150.947 64.2791 151.47 64.3409C151.952 64.4006 152.361 63.9422 152.434 63.4882C152.466 63.1061 152.423 62.7213 152.306 62.3562C152.231 62.51 152.112 62.6383 151.965 62.7254C151.818 62.8125 151.649 62.8546 151.478 62.8465Z" fill="black"/>
      <path opacity="0.1" d="M127.794 58.7874C127.685 58.1372 127.157 57.632 126.87 57.0351C126.686 56.6325 126.579 56.1985 126.556 55.756C126.556 55.9947 126.534 56.2335 126.532 56.4744C126.532 57.1737 126.562 57.8942 126.87 58.5295C127.106 59.0134 127.494 59.4398 127.689 59.9322C127.792 59.56 127.828 59.1722 127.794 58.7874Z" fill="black"/>
      <path opacity="0.1" d="M152.939 54.251C152.552 56.1099 151.949 58.003 152.136 59.8662C152.257 58.4912 152.656 57.1076 152.939 55.7432C153.174 54.7078 153.257 53.6434 153.185 52.5839C153.139 53.1443 153.057 53.7012 152.939 54.251Z" fill="black"/>
    </g>
    <path d="M128.63 102.04C128.373 106.274 125.279 109.772 124.101 113.844C123.808 114.863 123.631 115.921 123.211 116.891C122.362 118.841 120.614 120.257 118.752 121.255C118.072 121.649 117.329 121.92 116.556 122.056C115.706 122.156 114.847 121.993 114.091 121.59C113.336 121.186 112.721 120.562 112.328 119.799C111.842 118.807 111.774 117.667 111.479 116.601C111.15 115.371 110.534 114.237 110.133 113.028C109.394 110.804 109.409 108.37 109.92 106.084C110.405 104.097 111.173 102.19 112.199 100.422C112.348 100.16 112.498 99.9 112.653 99.642C113.091 98.8963 113.583 98.1838 114.125 97.5102C115.399 95.9689 117.036 94.7836 118.656 93.6153C118.78 93.513 118.925 93.4401 119.081 93.4021H119.106C119.289 93.3957 119.47 93.4384 119.631 93.5258C121.878 94.501 124.034 95.6738 126.075 97.0305C126.806 97.5187 127.959 98.0645 128.341 98.8959C128.723 99.7273 128.685 101.136 128.63 102.04Z" fill="#FBBEBE"/>
    <path d="M120.2 82.5574C119.993 82.7748 119.833 83.0323 119.729 83.3142C118.012 87.1978 116.998 91.3573 116.735 95.5978C116.739 95.8046 116.692 96.0092 116.597 96.1926C116.503 96.3146 116.398 96.4281 116.285 96.5316C116.181 96.6546 116.104 96.7976 116.058 96.9517C116.012 97.1059 115.998 97.2679 116.016 97.4277C116.035 97.5876 116.086 97.7419 116.167 97.8811C116.247 98.0203 116.355 98.1414 116.484 98.237C116.835 97.574 117.673 97.3587 118.419 97.3012C121.988 97.0176 125.475 98.6847 129.055 98.5589C128.802 97.6827 128.439 96.8407 128.233 95.9538C127.322 92.0163 129.594 87.7292 128.201 83.9367C127.923 83.1777 127.458 82.4316 126.725 82.099C126.422 81.976 126.105 81.8915 125.78 81.8475C124.876 81.6833 123.075 80.982 122.2 81.2634C121.878 81.3678 121.75 81.6727 121.483 81.856C121.086 82.1182 120.546 82.2099 120.2 82.5574Z" fill="#F86D70"/>
    <path opacity="0.1" d="M121.663 117.807C121.117 118.737 120.342 119.51 119.412 120.052C118.482 120.593 117.429 120.886 116.355 120.901C115.773 120.916 115.194 120.809 114.656 120.587C113.299 119.986 112.532 118.498 112.248 117.036C111.963 115.573 112.053 114.064 111.851 112.586C111.689 111.41 111.345 110.267 111.167 109.092C110.73 106.187 111.592 103.317 112.205 100.424C112.354 100.162 112.505 99.902 112.66 99.6441C113.098 98.8984 113.59 98.1858 114.131 97.5122C115.405 95.9709 117.043 94.7856 118.663 93.6174H116.964C117.005 93.5872 117.053 93.5684 117.104 93.5628C117.155 93.5572 117.206 93.565 117.252 93.5855C117.299 93.606 117.34 93.6385 117.37 93.6796C117.4 93.7207 117.419 93.7691 117.425 93.8199C117.593 95.3122 119.688 96.8045 120.145 98.2541C120.427 99.1452 120.767 100.019 120.994 100.927C121.173 101.701 121.309 102.484 121.402 103.272C121.703 105.48 122.004 107.683 122.302 109.881C122.678 112.565 123.001 115.467 121.663 117.807Z" fill="black"/>
    <path d="M118.852 89.8163L120.901 83.3632C121.207 82.3975 121.517 81.4169 121.553 80.4021C121.589 79.3874 121.323 78.3236 120.616 77.5988C120.043 77.0125 119.249 76.7098 118.569 76.2514C116.871 75.1024 116.021 73.0899 115.136 71.2374C114.25 69.3848 113.085 67.447 111.152 66.7605C110.706 66.6028 110.091 66.59 109.891 67.0185C109.822 67.1966 109.811 67.3921 109.859 67.577C110.046 68.5619 110.749 69.3486 111.36 70.1352C112.386 71.4676 113.244 73.0985 112.998 74.7656C112.705 76.7396 110.938 78.2703 110.726 80.255C110.632 81.1291 110.855 82.0053 110.853 82.8857C110.853 83.4315 110.764 83.9879 110.885 84.5208C111.01 84.9329 111.16 85.3372 111.333 85.7317C111.522 86.3691 111.621 87.0301 111.626 87.6951L112.074 96.086C112.316 100.625 109.863 105.04 110.539 109.517C110.717 110.691 111.061 111.834 111.222 113.011C111.435 114.488 111.335 115.995 111.619 117.46C111.904 118.924 112.681 120.41 114.027 121.011C114.566 121.233 115.144 121.34 115.726 121.325C116.801 121.31 117.854 121.018 118.784 120.476C119.714 119.934 120.489 119.161 121.035 118.232C122.372 115.887 122.05 112.989 121.684 110.316L120.784 103.707C120.692 102.919 120.556 102.136 120.376 101.362C120.151 100.454 119.812 99.5801 119.527 98.689C118.616 95.7748 117.935 92.7113 118.852 89.8163Z" fill="#FBBEBE"/>
    <path d="M173.398 90.3174H129.431C128.496 90.3174 127.738 91.0781 127.738 92.0165V118.89C127.738 119.829 128.496 120.589 129.431 120.589H173.398C174.333 120.589 175.09 119.829 175.09 118.89V92.0165C175.09 91.0781 174.333 90.3174 173.398 90.3174Z" fill="#3F3D56"/>
    <path opacity="0.2" d="M173.398 90.3174H129.431C128.496 90.3174 127.738 91.0781 127.738 92.0165V118.89C127.738 119.829 128.496 120.589 129.431 120.589H173.398C174.333 120.589 175.09 119.829 175.09 118.89V92.0165C175.09 91.0781 174.333 90.3174 173.398 90.3174Z" fill="black"/>
    <path d="M151.308 106.732C152.012 106.732 152.582 106.16 152.582 105.453C152.582 104.747 152.012 104.174 151.308 104.174C150.605 104.174 150.034 104.747 150.034 105.453C150.034 106.16 150.605 106.732 151.308 106.732Z" fill="white"/>
    <path d="M95.4345 130.255H98.0059C99.4139 130.255 100.764 130.817 101.76 131.816C102.755 132.816 103.314 134.171 103.314 135.585V143.496H90.126V135.585C90.126 134.171 90.6853 132.816 91.6808 131.816C92.6763 130.817 94.0266 130.255 95.4345 130.255Z" fill="#3F3D56"/>
    <path opacity="0.1" d="M95.4345 130.255H98.0059C99.4139 130.255 100.764 130.817 101.76 131.816C102.755 132.816 103.314 134.171 103.314 135.585V143.496H90.126V135.585C90.126 134.171 90.6853 132.816 91.6808 131.816C92.6763 130.817 94.0266 130.255 95.4345 130.255Z" fill="black"/>
    <path d="M96.195 133.169C96.7778 133.169 97.2503 132.695 97.2503 132.11C97.2503 131.525 96.7778 131.05 96.195 131.05C95.6121 131.05 95.1396 131.525 95.1396 132.11C95.1396 132.695 95.6121 133.169 96.195 133.169Z" fill="#3F3D56"/>
    <path d="M96.195 131.845C96.7778 131.845 97.2503 131.371 97.2503 130.786C97.2503 130.201 96.7778 129.726 96.195 129.726C95.6121 129.726 95.1396 130.201 95.1396 130.786C95.1396 131.371 95.6121 131.845 96.195 131.845Z" fill="#3F3D56"/>
    <path d="M96.195 130.522C96.7778 130.522 97.2503 130.047 97.2503 129.462C97.2503 128.877 96.7778 128.403 96.195 128.403C95.6121 128.403 95.1396 128.877 95.1396 129.462C95.1396 130.047 95.6121 130.522 96.195 130.522Z" fill="#3F3D56"/>
    <path d="M96.195 129.198C96.7778 129.198 97.2503 128.723 97.2503 128.138C97.2503 127.553 96.7778 127.079 96.195 127.079C95.6121 127.079 95.1396 127.553 95.1396 128.138C95.1396 128.723 95.6121 129.198 96.195 129.198Z" fill="#3F3D56"/>
    <path d="M96.195 127.874C96.7778 127.874 97.2503 127.399 97.2503 126.814C97.2503 126.229 96.7778 125.755 96.195 125.755C95.6121 125.755 95.1396 126.229 95.1396 126.814C95.1396 127.399 95.6121 127.874 96.195 127.874Z" fill="#3F3D56"/>
    <path d="M96.195 126.55C96.7778 126.55 97.2503 126.076 97.2503 125.49C97.2503 124.905 96.7778 124.431 96.195 124.431C95.6121 124.431 95.1396 124.905 95.1396 125.49C95.1396 126.076 95.6121 126.55 96.195 126.55Z" fill="#3F3D56"/>
    <path d="M96.195 125.226C96.7778 125.226 97.2503 124.752 97.2503 124.167C97.2503 123.581 96.7778 123.107 96.195 123.107C95.6121 123.107 95.1396 123.581 95.1396 124.167C95.1396 124.752 95.6121 125.226 96.195 125.226Z" fill="#3F3D56"/>
    <path d="M97.777 125.755C98.3599 125.755 98.8323 125.28 98.8323 124.695C98.8323 124.11 98.3599 123.636 97.777 123.636C97.1942 123.636 96.7217 124.11 96.7217 124.695C96.7217 125.28 97.1942 125.755 97.777 125.755Z" fill="#3F3D56"/>
    <path d="M98.8322 125.226C99.415 125.226 99.8875 124.752 99.8875 124.167C99.8875 123.581 99.415 123.107 98.8322 123.107C98.2493 123.107 97.7769 123.581 97.7769 124.167C97.7769 124.752 98.2493 125.226 98.8322 125.226Z" fill="#3F3D56"/>
    <path d="M99.8874 124.695C100.47 124.695 100.943 124.221 100.943 123.636C100.943 123.051 100.47 122.576 99.8874 122.576C99.3045 122.576 98.832 123.051 98.832 123.636C98.832 124.221 99.3045 124.695 99.8874 124.695Z" fill="#3F3D56"/>
    <path d="M96.195 123.9C96.7778 123.9 97.2503 123.426 97.2503 122.841C97.2503 122.255 96.7778 121.781 96.195 121.781C95.6121 121.781 95.1396 122.255 95.1396 122.841C95.1396 123.426 95.6121 123.9 96.195 123.9Z" fill="#3F3D56"/>
    <path d="M96.195 122.576C96.7778 122.576 97.2503 122.102 97.2503 121.517C97.2503 120.932 96.7778 120.457 96.195 120.457C95.6121 120.457 95.1396 120.932 95.1396 121.517C95.1396 122.102 95.6121 122.576 96.195 122.576Z" fill="#3F3D56"/>
    <path d="M96.195 121.252C96.7778 121.252 97.2503 120.778 97.2503 120.193C97.2503 119.608 96.7778 119.133 96.195 119.133C95.6121 119.133 95.1396 119.608 95.1396 120.193C95.1396 120.778 95.6121 121.252 96.195 121.252Z" fill="#3F3D56"/>
    <path d="M96.195 119.928C96.7778 119.928 97.2503 119.454 97.2503 118.869C97.2503 118.284 96.7778 117.809 96.195 117.809C95.6121 117.809 95.1396 118.284 95.1396 118.869C95.1396 119.454 95.6121 119.928 96.195 119.928Z" fill="#3F3D56"/>
    <path d="M100.567 115.452C100.306 115.49 100.043 115.518 99.7794 115.535C100.024 115.32 100.251 115.087 100.459 114.836C100.312 114.391 100.097 113.971 99.8219 113.593C99.5603 113.74 99.2711 113.832 98.9725 113.861C98.7113 113.9 98.448 113.93 98.1847 113.947C98.5386 113.609 98.8752 113.253 99.1934 112.881C98.43 112.191 97.4539 111.786 96.4285 111.733C95.4031 111.68 94.3907 111.982 93.5605 112.588C92.7304 113.195 92.133 114.069 91.8683 115.065C91.6036 116.061 91.6876 117.118 92.1063 118.06C92.525 119.001 93.253 119.769 94.1685 120.236C95.084 120.702 96.1313 120.839 97.1353 120.624C98.1393 120.408 99.039 119.852 99.6838 119.05C100.329 118.248 100.679 117.248 100.678 116.217C100.678 115.958 100.655 115.699 100.61 115.443L100.567 115.452Z" fill="#FC5185"/>
    <path d="M104.094 120.715C103.824 120.881 103.521 120.983 103.206 121.014C102.945 121.052 102.682 121.08 102.419 121.097C102.698 120.845 102.96 120.573 103.2 120.282C102.564 120.116 101.888 120.194 101.306 120.5C100.724 120.807 100.277 121.321 100.052 121.941C99.8266 122.561 99.8401 123.244 100.089 123.854C100.339 124.465 100.806 124.961 101.4 125.244C101.994 125.527 102.672 125.578 103.301 125.386C103.93 125.194 104.466 124.774 104.802 124.207C105.139 123.64 105.253 122.967 105.122 122.32C104.991 121.673 104.625 121.099 104.094 120.709V120.715Z" fill="#FC5185"/>
    <path d="M94.611 125.755C95.1939 125.755 95.6664 125.28 95.6664 124.695C95.6664 124.11 95.1939 123.636 94.611 123.636C94.0282 123.636 93.5557 124.11 93.5557 124.695C93.5557 125.28 94.0282 125.755 94.611 125.755Z" fill="#3F3D56"/>
    <path d="M93.5553 125.226C94.1382 125.226 94.6107 124.752 94.6107 124.167C94.6107 123.581 94.1382 123.107 93.5553 123.107C92.9725 123.107 92.5 123.581 92.5 124.167C92.5 124.752 92.9725 125.226 93.5553 125.226Z" fill="#3F3D56"/>
    <path d="M92.5002 124.695C93.083 124.695 93.5555 124.221 93.5555 123.636C93.5555 123.051 93.083 122.576 92.5002 122.576C91.9173 122.576 91.4448 123.051 91.4448 123.636C91.4448 124.221 91.9173 124.695 92.5002 124.695Z" fill="#3F3D56"/>
    <path d="M88.2935 120.715C88.5629 120.881 88.8665 120.983 89.1811 121.014C89.4423 121.052 89.7056 121.08 89.9689 121.097C89.6885 120.845 89.4273 120.573 89.1875 120.282C89.8238 120.116 90.4991 120.194 91.0813 120.5C91.6636 120.807 92.111 121.321 92.336 121.941C92.561 122.561 92.5475 123.244 92.2981 123.854C92.0487 124.465 91.5814 124.961 90.9874 125.244C90.3935 125.527 89.7157 125.578 89.0865 125.386C88.4573 125.194 87.922 124.774 87.5852 124.207C87.2484 123.64 87.1344 122.967 87.2654 122.32C87.3964 121.673 87.763 121.099 88.2935 120.709V120.715Z" fill="#FC5185"/>
    <path d="M95.4345 131.05H98.0059C99.4139 131.05 100.764 131.612 101.76 132.611C102.755 133.611 103.314 134.966 103.314 136.38V143.387C103.314 143.627 103.22 143.857 103.051 144.026C102.882 144.196 102.653 144.291 102.414 144.291H91.0263C90.7875 144.291 90.5585 144.196 90.3897 144.026C90.2208 143.857 90.126 143.627 90.126 143.387V136.38C90.126 134.966 90.6853 133.611 91.6808 132.611C92.6763 131.612 94.0266 131.05 95.4345 131.05Z" fill="#3F3D56"/>
    <g opacity="0.1">
      <path opacity="0.1" d="M100.647 115.742C100.541 115.856 100.427 115.964 100.308 116.066C100.429 116.066 100.548 116.046 100.669 116.034C100.664 115.936 100.658 115.838 100.647 115.742Z" fill="black"/>
      <path opacity="0.1" d="M98.7236 114.475C98.9891 114.458 99.2502 114.43 99.5135 114.392C99.7498 114.362 99.9806 114.299 100.199 114.204C100.092 113.991 99.9685 113.787 99.8299 113.593C99.6979 113.673 99.5548 113.734 99.4053 113.774C99.197 114.026 98.9691 114.26 98.7236 114.475Z" fill="black"/>
      <path opacity="0.1" d="M92.2367 116.75C92.2351 115.942 92.4506 115.148 92.8606 114.452C93.2706 113.757 93.8599 113.185 94.5663 112.798C95.2728 112.41 96.0703 112.221 96.8748 112.25C97.6793 112.279 98.4611 112.526 99.1377 112.964L99.2057 112.891C98.7641 112.497 98.2491 112.194 97.6903 112C97.1316 111.806 96.5402 111.726 95.9502 111.762C95.3602 111.799 94.7833 111.953 94.2527 112.214C93.7221 112.476 93.2483 112.84 92.8586 113.286C92.4689 113.733 92.171 114.252 91.9821 114.814C91.7931 115.377 91.7169 115.971 91.7578 116.563C91.7987 117.155 91.9558 117.733 92.2202 118.264C92.4846 118.795 92.8511 119.268 93.2984 119.656C92.6116 118.845 92.2352 117.814 92.2367 116.75Z" fill="black"/>
    </g>
    <g opacity="0.1">
      <path opacity="0.1" d="M102.419 121.625C102.682 121.608 102.946 121.581 103.207 121.542C103.521 121.513 103.825 121.41 104.094 121.244C104.392 121.464 104.641 121.745 104.824 122.068C105.007 122.392 105.12 122.75 105.156 123.12C105.166 123.027 105.171 122.934 105.171 122.841C105.173 122.427 105.078 122.018 104.893 121.647C104.709 121.277 104.44 120.956 104.109 120.709C103.84 120.874 103.536 120.976 103.222 121.007L103.009 121.033C102.828 121.245 102.631 121.444 102.419 121.625Z" fill="black"/>
      <path opacity="0.1" d="M102.525 120.722C102.613 120.723 102.701 120.729 102.788 120.741C102.926 120.594 103.062 120.436 103.2 120.282C102.81 120.178 102.401 120.165 102.004 120.244C101.608 120.324 101.236 120.494 100.915 120.741C100.595 120.988 100.336 121.306 100.158 121.67C99.9794 122.035 99.887 122.435 99.8877 122.841C99.8877 122.93 99.8877 123.018 99.9004 123.105C99.9657 122.452 100.27 121.846 100.755 121.406C101.24 120.965 101.871 120.721 102.525 120.722Z" fill="black"/>
    </g>
    <g opacity="0.1">
      <path opacity="0.1" d="M89.9693 121.625C89.706 121.608 89.4427 121.581 89.1815 121.542C88.8666 121.513 88.5628 121.411 88.2939 121.244C87.9958 121.464 87.7471 121.745 87.5642 122.068C87.3813 122.392 87.2682 122.75 87.2322 123.12C87.2219 123.027 87.2169 122.934 87.2173 122.841C87.2153 122.427 87.3104 122.018 87.4948 121.647C87.6793 121.277 87.9479 120.956 88.279 120.709C88.5484 120.875 88.852 120.977 89.1666 121.007L89.3789 121.033C89.559 121.246 89.7565 121.445 89.9693 121.625Z" fill="black"/>
      <path opacity="0.1" d="M89.8632 120.722C89.7745 120.723 89.6858 120.729 89.5978 120.741C89.4619 120.594 89.326 120.436 89.188 120.282C89.5784 120.178 89.9875 120.165 90.3837 120.244C90.7799 120.324 91.1526 120.494 91.4729 120.741C91.7931 120.988 92.0524 121.306 92.2306 121.67C92.4088 122.035 92.5012 122.435 92.5005 122.841C92.5005 122.93 92.5005 123.018 92.4878 123.105C92.4225 122.452 92.1178 121.846 91.6328 121.406C91.1478 120.965 90.5172 120.721 89.8632 120.722Z" fill="black"/>
    </g>
    <path d="M81.5624 38.2985H33.5732V57.0586H81.5624V38.2985Z" fill="#FC5185"/>
    <path d="M109.804 38.2985H36.1213C34.7141 38.2985 33.5732 39.4438 33.5732 40.8567V54.5004C33.5732 55.9133 34.7141 57.0586 36.1213 57.0586H109.804C111.211 57.0586 112.352 55.9133 112.352 54.5004V40.8567C112.352 39.4438 111.211 38.2985 109.804 38.2985Z" stroke="#3F3D56" stroke-width="9" stroke-miterlimit="10"/>
    <path d="M76.734 46.6744C76.5788 45.8897 76.1845 45.1729 75.6056 44.6231C75.0268 44.0732 74.292 43.7176 73.503 43.6055C72.714 43.4933 71.9099 43.6302 71.2017 43.997C70.4936 44.3639 69.9166 44.9427 69.5505 45.6533C68.7664 45.7363 68.044 46.1186 67.5327 46.7211C67.0213 47.3236 66.7601 48.1003 66.8029 48.8907C66.8457 49.6811 67.1893 50.4248 67.7627 50.9681C68.336 51.5114 69.0954 51.8128 69.8838 51.81H76.5556C77.2372 51.8083 77.8903 51.535 78.3713 51.0501C78.8523 50.5652 79.1218 49.9084 79.1207 49.2241C79.1234 48.5732 78.8775 47.946 78.4335 47.4717C77.9895 46.9974 77.3812 46.712 76.734 46.6744ZM73.7846 48.1944V50.1514H72.141V48.1944H70.3977L72.9628 45.617L75.5279 48.1944H73.7846Z" fill="white"/>
  </g>
  <defs>
    <linearGradient id="paint0_linear_37_265" x1="153.827" y1="150.998" x2="153.827" y2="41.9226" gradientUnits="userSpaceOnUse">
      <stop stop-color="#808080" stop-opacity="0.25"/>
      <stop offset="0.54" stop-color="#808080" stop-opacity="0.12"/>
      <stop offset="1" stop-color="#808080" stop-opacity="0.1"/>
    </linearGradient>
    <clipPath id="clip0_37_265">
      <rect width="216" height="151" fill="white"/>
    </clipPath>
  </defs>
</svg>